<svg width="20" height="20" viewBox="0 0 20 20" fill="none" xmlns="http://www.w3.org/2000/svg">
<path d="M17.5705 5.63159C17.5122 5.50732 17.424 5.3994 17.3139 5.31742L16.9847 5.07325V2.94742C16.9847 2.7264 16.8969 2.51444 16.7406 2.35816C16.5843 2.20188 16.3724 2.11409 16.1514 2.11409C15.9304 2.11409 15.7184 2.20188 15.5621 2.35816C15.4058 2.51444 15.318 2.7264 15.318 2.94742V3.86409C13.0722 2.27075 10.8197 0.833252 9.99887 0.833252C8.91637 0.833252 5.42387 3.27242 2.68387 5.31825C2.57303 5.40159 2.48387 5.51075 2.42553 5.63742C2.38637 5.72242 1.46387 7.77242 1.46387 11.9524C1.46387 13.7566 1.6322 16.4274 1.82387 17.6674C1.84788 17.8225 1.91521 17.9677 2.01812 18.0863C2.12103 18.2048 2.25532 18.2919 2.40553 18.3374C2.5172 18.3716 5.19387 19.1666 9.99887 19.1666C14.8039 19.1666 17.4797 18.3708 17.5905 18.3374C17.7406 18.2917 17.8747 18.2046 17.9775 18.0861C18.0802 17.9676 18.1474 17.8224 18.1714 17.6674C18.3639 16.4191 18.5339 13.7483 18.5339 11.9524C18.5339 7.73659 17.6089 5.71659 17.5697 5.63242L17.5705 5.63159ZM8.2622 17.4616V14.0674C8.2622 13.0583 9.0422 12.2374 9.9997 12.2374C10.9572 12.2374 11.7372 13.0583 11.7372 14.0674V17.4616C10.5794 17.5133 9.41996 17.5133 8.2622 17.4616ZM16.5972 16.8691C16.0105 17.0016 14.9289 17.2083 13.4039 17.3491V14.0674C13.4039 12.1391 11.8772 10.5708 9.9997 10.5708C8.1222 10.5708 6.59553 12.1391 6.59553 14.0674V17.3491C5.07053 17.2091 3.98803 17.0016 3.40053 16.8691C3.2522 15.5699 3.13137 13.4258 3.13137 11.9516C3.13137 8.84825 3.67553 7.05575 3.87137 6.51242C6.3197 4.69492 9.2522 2.72075 9.99887 2.50909C10.743 2.72409 13.678 4.69825 16.1305 6.51409C16.3264 7.05492 16.8689 8.82909 16.8689 11.9516C16.8689 13.4208 16.7464 15.5658 16.5972 16.8691Z" fill="#131313"/>
</svg>
