<svg width="33" height="33" viewBox="0 0 33 33" fill="none" xmlns="http://www.w3.org/2000/svg">
<path d="M27.0975 32.4375C20.055 33.1889 12.9526 33.1889 5.91003 32.4375C4.54244 32.2931 3.26567 31.6843 2.29258 30.7126C1.31949 29.7408 0.708873 28.4649 0.562534 27.0975C-0.188813 20.055 -0.188813 12.9526 0.562534 5.91003C0.706954 4.54244 1.31578 3.26567 2.2875 2.29258C3.25923 1.31949 4.53515 0.708873 5.90253 0.562534C12.9451 -0.188813 20.0475 -0.188813 27.09 0.562534C28.4576 0.706954 29.7344 1.31578 30.7075 2.2875C31.6806 3.25923 32.2912 4.53515 32.4375 5.90253C33.1889 12.9451 33.1889 20.0475 32.4375 27.09C32.2931 28.4576 31.6843 29.7344 30.7126 30.7075C29.7408 31.6806 28.4649 32.2912 27.0975 32.4375Z" fill="#E60000"/>
<path d="M33.0005 17.8445C32.9592 20.9308 32.7717 24.0151 32.438 27.0976C32.2923 28.464 31.6829 29.7392 30.7112 30.7109C29.7396 31.6825 28.4644 32.2919 27.098 32.4376C24.0017 32.7676 20.903 32.9551 17.8017 33.0001L7.50048 22.6876C6.73736 8.73388 25.2661 10.1251 25.2661 10.1251L33.0005 17.8445Z" fill="#B50000"/>
<path d="M26.3311 11.5387C25.9186 10.2694 24.5536 9.50061 23.2973 9.32436C18.7788 8.84435 14.2221 8.84435 9.70359 9.32436C8.44734 9.50061 7.07859 10.2619 6.66984 11.5387C6.02672 14.8156 6.02672 18.1862 6.66984 21.4631C7.08234 22.7306 8.44734 23.5012 9.70359 23.6775C14.2221 24.1575 18.7788 24.1575 23.2973 23.6775C24.5536 23.5012 25.9223 22.74 26.3311 21.4631C26.9742 18.1862 26.9742 14.8156 26.3311 11.5387ZM14.033 20.4525V12.5475L20.468 16.5C18.2986 17.8331 16.193 19.125 14.033 20.4525Z" fill="white"/>
</svg>
