<svg width="19" height="19" viewBox="0 0 19 19" fill="none" xmlns="http://www.w3.org/2000/svg">
<g clip-path="url(#clip0_30_348)">
<path d="M8.89837 19C8.639 18.9991 8.38293 18.9418 8.14787 18.8322C7.76391 18.6612 7.45555 18.356 7.28064 17.9738C7.10573 17.5917 7.0763 17.1588 7.19787 16.7565L8.43366 12.6667H5.52191C5.15094 12.6672 4.78502 12.5807 4.45348 12.4143C4.12194 12.2478 3.834 12.006 3.61274 11.7083C3.39147 11.4105 3.24304 11.065 3.17933 10.6996C3.11562 10.3341 3.13841 9.95882 3.24587 9.60375L5.63987 1.68708C5.78579 1.19742 6.08659 0.768293 6.49712 0.464107C6.90765 0.159921 7.40576 -0.00291462 7.9167 3.94957e-05H10.8403C11.1726 0.000317484 11.4999 0.0810476 11.7942 0.235331C12.0886 0.389613 12.3412 0.612862 12.5304 0.885997C12.7197 1.15913 12.84 1.47403 12.8811 1.80379C12.9222 2.13354 12.8829 2.46834 12.7664 2.77958L11.4341 6.33337H13.4584C13.8899 6.33334 14.3132 6.45086 14.683 6.67332C15.0527 6.89578 15.3548 7.21476 15.5569 7.59601C15.759 7.97725 15.8535 8.40636 15.8301 8.83722C15.8066 9.26809 15.6663 9.68443 15.4241 10.0415L10.3574 18.1957C10.2008 18.441 9.98518 18.6431 9.7303 18.7837C9.47542 18.9242 9.1894 18.9986 8.89837 19ZM7.9167 1.58337C7.74669 1.58321 7.58114 1.63778 7.44455 1.73901C7.30796 1.84024 7.20759 1.98275 7.15828 2.14546L4.76428 10.0621C4.72844 10.1804 4.72079 10.3054 4.74195 10.4272C4.7631 10.549 4.81248 10.6641 4.88612 10.7634C4.95976 10.8627 5.05562 10.9433 5.16602 10.9989C5.27643 11.0544 5.39831 11.0834 5.52191 11.0834H9.50003C9.62363 11.0834 9.74551 11.1123 9.85592 11.1679C9.96632 11.2235 10.0622 11.3041 10.1358 11.4034C10.2095 11.5026 10.2588 11.6178 10.28 11.7395C10.3012 11.8613 10.2935 11.9863 10.2577 12.1046L8.71628 17.2045C8.70916 17.2233 8.706 17.2433 8.70703 17.2634C8.70806 17.2834 8.71324 17.3031 8.72224 17.321C8.73125 17.3389 8.74389 17.3548 8.75935 17.3676C8.77481 17.3804 8.79277 17.3898 8.81207 17.3953C8.82958 17.4066 8.84923 17.414 8.86978 17.4171C8.89033 17.4203 8.91131 17.4191 8.93137 17.4137C8.95143 17.4082 8.97013 17.3986 8.98627 17.3855C9.0024 17.3724 9.0156 17.3561 9.02503 17.3375L14.0917 9.18337C14.1803 9.0632 14.2331 8.92042 14.244 8.77152C14.255 8.62261 14.2236 8.47365 14.1535 8.34183C14.0885 8.21343 13.989 8.10565 13.8663 8.03056C13.7435 7.95548 13.6023 7.91605 13.4584 7.91671H10.2917C10.1637 7.91679 10.0377 7.88585 9.9243 7.82655C9.81092 7.76725 9.7136 7.68136 9.64068 7.57622C9.56776 7.47108 9.52141 7.34983 9.5056 7.22286C9.4898 7.09589 9.505 6.96698 9.54991 6.84717L11.2837 2.22383C11.3103 2.15215 11.3192 2.0751 11.3097 1.99922C11.3002 1.92335 11.2725 1.8509 11.229 1.78802C11.1854 1.72514 11.1274 1.67371 11.0597 1.63808C10.9921 1.60245 10.9168 1.58368 10.8403 1.58337H7.9167Z" fill="#0094FF"/>
</g>
<defs>
<clipPath id="clip0_30_348">
<rect width="19" height="19" fill="white"/>
</clipPath>
</defs>
</svg>
