<svg width="33" height="33" viewBox="0 0 33 33" fill="none" xmlns="http://www.w3.org/2000/svg">
<g clip-path="url(#clip0_52_39)">
<path d="M16.5 0C7.38762 0 0 7.38762 0 16.5C0 25.6124 7.38762 33 16.5 33C25.6124 33 33 25.6124 33 16.5C33 7.38762 25.6124 0 16.5 0Z" fill="black"/>
<path d="M18.3047 15.0068L25.3682 6.79614H23.6944L17.5612 13.9254L12.6626 6.79614H7.0127L14.4203 17.5768L7.0127 26.187H8.6866L15.1634 18.6583L20.3367 26.187H25.9866L18.3043 15.0068H18.3047ZM9.28972 8.05625H11.8607L23.6951 24.9842H21.1241L9.28972 8.05625Z" fill="white"/>
</g>
<defs>
<clipPath id="clip0_52_39">
<rect width="33" height="33" fill="white"/>
</clipPath>
</defs>
</svg>
