<svg width="35" height="35" viewBox="0 0 35 35" fill="none" xmlns="http://www.w3.org/2000/svg">
<path d="M27.7464 17.5V26.25C27.7464 26.6368 27.5928 27.0077 27.3193 27.2812C27.0458 27.5547 26.6749 27.7083 26.2881 27.7083C25.9013 27.7083 25.5304 27.5547 25.2569 27.2812C24.9834 27.0077 24.8298 26.6368 24.8298 26.25V17.5C24.8298 17.1132 24.9834 16.7423 25.2569 16.4688C25.5304 16.1953 25.9013 16.0417 26.2881 16.0417C26.6749 16.0417 27.0458 16.1953 27.3193 16.4688C27.5928 16.7423 27.7464 17.1132 27.7464 17.5ZM16.9256 9.79563L21.4041 25.8796C21.5074 26.248 21.4601 26.6423 21.2726 26.9758C21.1798 27.141 21.0553 27.2862 20.9064 27.4033C20.7574 27.5203 20.5869 27.6069 20.4044 27.658C20.036 27.7613 19.6417 27.714 19.3082 27.5265C18.9747 27.339 18.7293 27.0267 18.626 26.6583L17.6883 23.3333H10.0962L9.1585 26.6583C9.04362 27.0131 8.79588 27.3097 8.4672 27.486C8.13852 27.6622 7.75439 27.7044 7.39528 27.6038C7.03617 27.5031 6.72995 27.2674 6.54076 26.946C6.35157 26.6246 6.2941 26.2424 6.38038 25.8796L10.8881 9.68042C10.9893 9.24274 11.1851 8.83253 11.4618 8.47857C11.7384 8.12461 12.0891 7.83547 12.4893 7.63146C13.3177 7.20563 14.2685 7.17938 15.1712 7.55854C16.0273 7.91729 16.6835 8.75 16.927 9.79708L16.9256 9.79563ZM16.8658 20.4167L14.0527 10.449C14.0104 10.2827 13.7741 10.2827 13.7333 10.449L10.9202 20.4167H16.8658ZM33.5812 14.5833C33.1944 14.5833 32.8235 14.737 32.55 15.0105C32.2765 15.284 32.1229 15.6549 32.1229 16.0417V27.7083C32.1229 30.1204 30.16 32.0833 27.7479 32.0833H7.32975C4.91767 32.0833 2.95475 30.1204 2.95475 27.7083V7.29167C2.95475 4.87958 4.91767 2.91667 7.32975 2.91667H18.9964C19.3832 2.91667 19.7541 2.76302 20.0276 2.48953C20.3011 2.21604 20.4548 1.84511 20.4548 1.45833C20.4548 1.07156 20.3011 0.700627 20.0276 0.427136C19.7541 0.153645 19.3832 0 18.9964 0L7.32975 0C3.30913 0 0.0380859 3.27104 0.0380859 7.29167V27.7083C0.0380859 31.729 3.30913 35 7.32975 35H27.7464C31.767 35 35.0381 31.729 35.0381 27.7083V16.0417C35.0381 15.6549 34.8844 15.284 34.611 15.0105C34.3375 14.737 33.9665 14.5833 33.5798 14.5833H33.5812ZM23.5916 7.55417L26.3158 8.70188L27.4023 11.4217C27.5162 11.7105 27.7144 11.9584 27.9711 12.1331C28.2278 12.3078 28.5311 12.4012 28.8416 12.4012C29.1521 12.4012 29.4555 12.3078 29.7122 12.1331C29.9689 11.9584 30.1671 11.7105 30.281 11.4217L31.3616 8.71792L34.0654 7.63729C34.3542 7.52336 34.6021 7.32516 34.7768 7.06846C34.9515 6.81175 35.0449 6.50843 35.0449 6.19792C35.0449 5.88741 34.9515 5.58408 34.7768 5.32738C34.6021 5.07067 34.3542 4.87247 34.0654 4.75854L31.3616 3.67792L30.281 0.974167C30.1651 0.68717 29.9661 0.441352 29.7095 0.268255C29.4529 0.0951569 29.1504 0.00267493 28.8409 0.00267493C28.5314 0.00267493 28.2289 0.0951569 27.9723 0.268255C27.7157 0.441352 27.5167 0.68717 27.4008 0.974167L26.326 3.66188L23.6427 4.67833C23.3532 4.78828 23.1034 4.98239 22.9252 5.23563C22.7471 5.48887 22.6489 5.78966 22.6432 6.09922C22.6376 6.40879 22.7248 6.71295 22.8935 6.97253C23.0623 7.2321 23.3049 7.43519 23.5902 7.55563L23.5916 7.55417Z" fill="#0F113A"/>
</svg>
