<svg width="106" height="23" viewBox="0 0 106 23" fill="none" xmlns="http://www.w3.org/2000/svg">
<path d="M21.1494 17.0494L15.6 11.5L21.1494 5.95058L17.1241 1.92529L11.5747 7.47471L6.02528 1.92529L2 5.95058L7.54942 11.5L2 17.0494L6.02528 21.0747L11.5747 15.4862L17.1241 21.0747L21.1494 17.0494Z" stroke="#EB5757" stroke-width="1.56322" stroke-miterlimit="10"/>
<path d="M62.5747 17.0494L57.0253 11.5L62.5747 5.95058L58.5494 1.92529L53 7.47471L47.4506 1.92529L43.4253 5.95058L49.0138 11.5L43.4253 17.0494L47.4506 21.0747L53 15.4862L58.5494 21.0747L62.5747 17.0494Z" stroke="#EB5757" stroke-width="1.56322" stroke-miterlimit="10"/>
<path d="M104 17.0494L98.4505 11.5L104 5.95058L99.9747 1.92529L94.4253 7.47471L88.8758 1.92529L84.8896 5.95058L90.439 11.5L84.8896 17.0494L88.8758 21.0747L94.4253 15.4862L99.9747 21.0747L104 17.0494Z" stroke="#EB5757" stroke-width="1.56322" stroke-miterlimit="10"/>
</svg>
