<svg width="89" height="76" viewBox="0 0 89 76" fill="none" xmlns="http://www.w3.org/2000/svg">
<path d="M85.9541 74.6215C85.9541 73.8383 86.5807 73.2118 87.3325 73.2118C88.1157 73.2118 88.7422 73.8383 88.7422 74.6215C88.7422 75.3734 88.1157 75.9999 87.3325 75.9999C86.5807 75.9999 85.9541 75.3734 85.9541 74.6215Z" fill="#0F113A"/>
<path d="M85.9541 62.4351C85.9541 61.6519 86.5807 61.0254 87.3325 61.0254C88.1157 61.0254 88.7422 61.6519 88.7422 62.4351C88.7422 63.187 88.1157 63.8135 87.3325 63.8135C86.5807 63.8135 85.9541 63.187 85.9541 62.4351Z" fill="#0F113A"/>
<path d="M85.9541 50.2488C85.9541 49.4657 86.5807 48.8391 87.3325 48.8391C88.1157 48.8391 88.7422 49.4657 88.7422 50.2488C88.7422 51.0007 88.1157 51.6272 87.3325 51.6272C86.5807 51.6272 85.9541 51.0007 85.9541 50.2488Z" fill="#0F113A"/>
<path d="M85.9541 38.0626C85.9541 37.2794 86.5807 36.6528 87.3325 36.6528C88.1157 36.6528 88.7422 37.2794 88.7422 38.0626C88.7422 38.8144 88.1157 39.441 87.3325 39.441C86.5807 39.441 85.9541 38.8144 85.9541 38.0626Z" fill="#0F113A"/>
<path d="M85.9541 25.8449C85.9541 25.0617 86.5807 24.4352 87.3325 24.4352C88.1157 24.4352 88.7422 25.0617 88.7422 25.8449C88.7422 26.5968 88.1157 27.2546 87.3325 27.2546C86.5807 27.2546 85.9541 26.5968 85.9541 25.8449Z" fill="#0F113A"/>
<path d="M85.9541 13.6273C85.9541 12.8441 86.5807 12.2175 87.3325 12.2175C88.1157 12.2175 88.7422 12.8441 88.7422 13.6273C88.7422 14.3791 88.1157 15.037 87.3325 15.037C86.5807 15.037 85.9541 14.3791 85.9541 13.6273Z" fill="#0F113A"/>
<path d="M85.9541 1.40961C85.9541 0.626424 86.5807 -0.00012207 87.3325 -0.00012207C88.1157 -0.00012207 88.7422 0.626424 88.7422 1.40961C88.7422 2.16146 88.1157 2.81933 87.3325 2.81933C86.5807 2.81933 85.9541 2.16146 85.9541 1.40961Z" fill="#0F113A"/>
<path d="M73.7363 74.6215C73.7363 73.8383 74.3629 73.2118 75.1461 73.2118C75.9292 73.2118 76.5558 73.8383 76.5558 74.6215C76.5558 75.3734 75.9292 75.9999 75.1461 75.9999C74.3629 75.9999 73.7363 75.3734 73.7363 74.6215Z" fill="#0F113A"/>
<path d="M73.7363 62.4351C73.7363 61.6519 74.3629 61.0254 75.1461 61.0254C75.9292 61.0254 76.5558 61.6519 76.5558 62.4351C76.5558 63.187 75.9292 63.8135 75.1461 63.8135C74.3629 63.8135 73.7363 63.187 73.7363 62.4351Z" fill="#0F113A"/>
<path d="M73.7363 50.2488C73.7363 49.4657 74.3629 48.8391 75.1461 48.8391C75.9292 48.8391 76.5558 49.4657 76.5558 50.2488C76.5558 51.0007 75.9292 51.6272 75.1461 51.6272C74.3629 51.6272 73.7363 51.0007 73.7363 50.2488Z" fill="#0F113A"/>
<path d="M73.7363 38.0626C73.7363 37.2794 74.3629 36.6528 75.1461 36.6528C75.9292 36.6528 76.5558 37.2794 76.5558 38.0626C76.5558 38.8144 75.9292 39.441 75.1461 39.441C74.3629 39.441 73.7363 38.8144 73.7363 38.0626Z" fill="#0F113A"/>
<path d="M73.7363 25.8449C73.7363 25.0617 74.3629 24.4352 75.1461 24.4352C75.9292 24.4352 76.5558 25.0617 76.5558 25.8449C76.5558 26.5968 75.9292 27.2546 75.1461 27.2546C74.3629 27.2546 73.7363 26.5968 73.7363 25.8449Z" fill="#0F113A"/>
<path d="M73.7363 13.6273C73.7363 12.8441 74.3629 12.2175 75.1461 12.2175C75.9292 12.2175 76.5558 12.8441 76.5558 13.6273C76.5558 14.3791 75.9292 15.037 75.1461 15.037C74.3629 15.037 73.7363 14.3791 73.7363 13.6273Z" fill="#0F113A"/>
<path d="M73.7363 1.40961C73.7363 0.626424 74.3629 -0.00012207 75.1461 -0.00012207C75.9292 -0.00012207 76.5558 0.626424 76.5558 1.40961C76.5558 2.16146 75.9292 2.81933 75.1461 2.81933C74.3629 2.81933 73.7363 2.16146 73.7363 1.40961Z" fill="#0F113A"/>
<path d="M61.519 74.6215C61.519 73.8383 62.1456 73.2118 62.9288 73.2118C63.712 73.2118 64.3385 73.8383 64.3385 74.6215C64.3385 75.3734 63.712 75.9999 62.9288 75.9999C62.1456 75.9999 61.519 75.3734 61.519 74.6215Z" fill="#0F113A"/>
<path d="M61.519 62.4351C61.519 61.6519 62.1456 61.0254 62.9288 61.0254C63.712 61.0254 64.3385 61.6519 64.3385 62.4351C64.3385 63.187 63.712 63.8135 62.9288 63.8135C62.1456 63.8135 61.519 63.187 61.519 62.4351Z" fill="#0F113A"/>
<path d="M61.519 50.2488C61.519 49.4657 62.1456 48.8391 62.9288 48.8391C63.712 48.8391 64.3385 49.4657 64.3385 50.2488C64.3385 51.0007 63.712 51.6272 62.9288 51.6272C62.1456 51.6272 61.519 51.0007 61.519 50.2488Z" fill="#0F113A"/>
<path d="M61.519 38.0626C61.519 37.2794 62.1456 36.6528 62.9288 36.6528C63.712 36.6528 64.3385 37.2794 64.3385 38.0626C64.3385 38.8144 63.712 39.441 62.9288 39.441C62.1456 39.441 61.519 38.8144 61.519 38.0626Z" fill="#0F113A"/>
<path d="M61.519 25.8449C61.519 25.0617 62.1456 24.4352 62.9288 24.4352C63.712 24.4352 64.3385 25.0617 64.3385 25.8449C64.3385 26.5968 63.712 27.2546 62.9288 27.2546C62.1456 27.2546 61.519 26.5968 61.519 25.8449Z" fill="#0F113A"/>
<path d="M61.519 13.6273C61.519 12.8441 62.1456 12.2175 62.9288 12.2175C63.712 12.2175 64.3385 12.8441 64.3385 13.6273C64.3385 14.3791 63.712 15.037 62.9288 15.037C62.1456 15.037 61.519 14.3791 61.519 13.6273Z" fill="#0F113A"/>
<path d="M61.519 1.40961C61.519 0.626424 62.1456 -0.00012207 62.9288 -0.00012207C63.712 -0.00012207 64.3385 0.626424 64.3385 1.40961C64.3385 2.16146 63.712 2.81933 62.9288 2.81933C62.1456 2.81933 61.519 2.16146 61.519 1.40961Z" fill="#0F113A"/>
<path d="M49.3013 74.6215C49.3013 73.8383 49.9278 73.2118 50.711 73.2118C51.4942 73.2118 52.1207 73.8383 52.1207 74.6215C52.1207 75.3734 51.4942 75.9999 50.711 75.9999C49.9278 75.9999 49.3013 75.3734 49.3013 74.6215Z" fill="#0F113A"/>
<path d="M49.3013 62.4351C49.3013 61.6519 49.9278 61.0254 50.711 61.0254C51.4942 61.0254 52.1207 61.6519 52.1207 62.4351C52.1207 63.187 51.4942 63.8135 50.711 63.8135C49.9278 63.8135 49.3013 63.187 49.3013 62.4351Z" fill="#0F113A"/>
<path d="M49.3013 50.2488C49.3013 49.4657 49.9278 48.8391 50.711 48.8391C51.4942 48.8391 52.1207 49.4657 52.1207 50.2488C52.1207 51.0007 51.4942 51.6272 50.711 51.6272C49.9278 51.6272 49.3013 51.0007 49.3013 50.2488Z" fill="#0F113A"/>
<path d="M49.3013 38.0626C49.3013 37.2794 49.9278 36.6528 50.711 36.6528C51.4942 36.6528 52.1207 37.2794 52.1207 38.0626C52.1207 38.8144 51.4942 39.441 50.711 39.441C49.9278 39.441 49.3013 38.8144 49.3013 38.0626Z" fill="#0F113A"/>
<path d="M49.3013 25.8449C49.3013 25.0617 49.9278 24.4352 50.711 24.4352C51.4942 24.4352 52.1207 25.0617 52.1207 25.8449C52.1207 26.5968 51.4942 27.2546 50.711 27.2546C49.9278 27.2546 49.3013 26.5968 49.3013 25.8449Z" fill="#0F113A"/>
<path d="M49.3013 13.6273C49.3013 12.8441 49.9278 12.2175 50.711 12.2175C51.4942 12.2175 52.1207 12.8441 52.1207 13.6273C52.1207 14.3791 51.4942 15.037 50.711 15.037C49.9278 15.037 49.3013 14.3791 49.3013 13.6273Z" fill="#0F113A"/>
<path d="M49.3013 1.40961C49.3013 0.626424 49.9278 -0.00012207 50.711 -0.00012207C51.4942 -0.00012207 52.1207 0.626424 52.1207 1.40961C52.1207 2.16146 51.4942 2.81933 50.711 2.81933C49.9278 2.81933 49.3013 2.16146 49.3013 1.40961Z" fill="#0F113A"/>
<path d="M37.1147 74.6215C37.1147 73.8383 37.7413 73.2118 38.4932 73.2118C39.2763 73.2118 39.9029 73.8383 39.9029 74.6215C39.9029 75.3734 39.2763 75.9999 38.4932 75.9999C37.7413 75.9999 37.1147 75.3734 37.1147 74.6215Z" fill="#0F113A"/>
<path d="M37.1147 62.4351C37.1147 61.6519 37.7413 61.0254 38.4932 61.0254C39.2763 61.0254 39.9029 61.6519 39.9029 62.4351C39.9029 63.187 39.2763 63.8135 38.4932 63.8135C37.7413 63.8135 37.1147 63.187 37.1147 62.4351Z" fill="#0F113A"/>
<path d="M37.1147 25.8449C37.1147 25.0617 37.7413 24.4352 38.4932 24.4352C39.2763 24.4352 39.9029 25.0617 39.9029 25.8449C39.9029 26.5968 39.2763 27.2546 38.4932 27.2546C37.7413 27.2546 37.1147 26.5968 37.1147 25.8449Z" fill="#0F113A"/>
<path d="M37.1147 50.2488C37.1147 49.4657 37.7413 48.8391 38.4932 48.8391C39.2763 48.8391 39.9029 49.4657 39.9029 50.2488C39.9029 51.0007 39.2763 51.6272 38.4932 51.6272C37.7413 51.6272 37.1147 51.0007 37.1147 50.2488Z" fill="#0F113A"/>
<path d="M37.1147 38.0626C37.1147 37.2794 37.7413 36.6528 38.4932 36.6528C39.2763 36.6528 39.9029 37.2794 39.9029 38.0626C39.9029 38.8144 39.2763 39.441 38.4932 39.441C37.7413 39.441 37.1147 38.8144 37.1147 38.0626Z" fill="#0F113A"/>
<path d="M12.6797 1.40961C12.6797 0.626424 13.3062 -0.00012207 14.0894 -0.00012207C14.8726 -0.00012207 15.4991 0.626424 15.4991 1.40961C15.4991 2.16146 14.8726 2.81933 14.0894 2.81933C13.3062 2.81933 12.6797 2.16146 12.6797 1.40961Z" fill="#0F113A"/>
<path d="M24.897 62.4351C24.897 61.6519 25.5235 61.0254 26.3067 61.0254C27.0899 61.0254 27.7164 61.6519 27.7164 62.4351C27.7164 63.187 27.0899 63.8135 26.3067 63.8135C25.5235 63.8135 24.897 63.187 24.897 62.4351Z" fill="#0F113A"/>
<path d="M37.1147 13.6273C37.1147 12.8441 37.7413 12.2175 38.4932 12.2175C39.2763 12.2175 39.9029 12.8441 39.9029 13.6273C39.9029 14.3791 39.2763 15.037 38.4932 15.037C37.7413 15.037 37.1147 14.3791 37.1147 13.6273Z" fill="#0F113A"/>
<path d="M37.1147 1.40961C37.1147 0.626424 37.7413 -0.00012207 38.4932 -0.00012207C39.2763 -0.00012207 39.9029 0.626424 39.9029 1.40961C39.9029 2.16146 39.2763 2.81933 38.4932 2.81933C37.7413 2.81933 37.1147 2.16146 37.1147 1.40961Z" fill="#0F113A"/>
<path d="M24.897 74.6215C24.897 73.8383 25.5235 73.2118 26.3067 73.2118C27.0899 73.2118 27.7164 73.8383 27.7164 74.6215C27.7164 75.3734 27.0899 75.9999 26.3067 75.9999C25.5235 75.9999 24.897 75.3734 24.897 74.6215Z" fill="#0F113A"/>
<path d="M24.897 50.2488C24.897 49.4657 25.5235 48.8391 26.3067 48.8391C27.0899 48.8391 27.7164 49.4657 27.7164 50.2488C27.7164 51.0007 27.0899 51.6272 26.3067 51.6272C25.5235 51.6272 24.897 51.0007 24.897 50.2488Z" fill="#0F113A"/>
<path d="M24.897 38.0626C24.897 37.2794 25.5235 36.6528 26.3067 36.6528C27.0899 36.6528 27.7164 37.2794 27.7164 38.0626C27.7164 38.8144 27.0899 39.441 26.3067 39.441C25.5235 39.441 24.897 38.8144 24.897 38.0626Z" fill="#0F113A"/>
<path d="M24.897 25.8449C24.897 25.0617 25.5235 24.4352 26.3067 24.4352C27.0899 24.4352 27.7164 25.0617 27.7164 25.8449C27.7164 26.5968 27.0899 27.2546 26.3067 27.2546C25.5235 27.2546 24.897 26.5968 24.897 25.8449Z" fill="#0F113A"/>
<path d="M24.897 13.6273C24.897 12.8441 25.5235 12.2175 26.3067 12.2175C27.0899 12.2175 27.7164 12.8441 27.7164 13.6273C27.7164 14.3791 27.0899 15.037 26.3067 15.037C25.5235 15.037 24.897 14.3791 24.897 13.6273Z" fill="#0F113A"/>
<path d="M24.897 1.40961C24.897 0.626424 25.5235 -0.00012207 26.3067 -0.00012207C27.0899 -0.00012207 27.7164 0.626424 27.7164 1.40961C27.7164 2.16146 27.0899 2.81933 26.3067 2.81933C25.5235 2.81933 24.897 2.16146 24.897 1.40961Z" fill="#0F113A"/>
<path d="M12.6797 74.6215C12.6797 73.8383 13.3062 73.2118 14.0894 73.2118C14.8726 73.2118 15.4991 73.8383 15.4991 74.6215C15.4991 75.3734 14.8726 75.9999 14.0894 75.9999C13.3062 75.9999 12.6797 75.3734 12.6797 74.6215Z" fill="#0F113A"/>
<path d="M12.6797 62.4351C12.6797 61.6519 13.3062 61.0254 14.0894 61.0254C14.8726 61.0254 15.4991 61.6519 15.4991 62.4351C15.4991 63.187 14.8726 63.8135 14.0894 63.8135C13.3062 63.8135 12.6797 63.187 12.6797 62.4351Z" fill="#0F113A"/>
<path d="M12.6797 50.2488C12.6797 49.4657 13.3062 48.8391 14.0894 48.8391C14.8726 48.8391 15.4991 49.4657 15.4991 50.2488C15.4991 51.0007 14.8726 51.6272 14.0894 51.6272C13.3062 51.6272 12.6797 51.0007 12.6797 50.2488Z" fill="#0F113A"/>
<path d="M12.6797 38.0626C12.6797 37.2794 13.3062 36.6528 14.0894 36.6528C14.8726 36.6528 15.4991 37.2794 15.4991 38.0626C15.4991 38.8144 14.8726 39.441 14.0894 39.441C13.3062 39.441 12.6797 38.8144 12.6797 38.0626Z" fill="#0F113A"/>
<path d="M12.6797 25.8449C12.6797 25.0617 13.3062 24.4352 14.0894 24.4352C14.8726 24.4352 15.4991 25.0617 15.4991 25.8449C15.4991 26.5968 14.8726 27.2546 14.0894 27.2546C13.3062 27.2546 12.6797 26.5968 12.6797 25.8449Z" fill="#0F113A"/>
<path d="M12.6797 13.6273C12.6797 12.8441 13.3062 12.2175 14.0894 12.2175C14.8726 12.2175 15.4991 12.8441 15.4991 13.6273C15.4991 14.3791 14.8726 15.037 14.0894 15.037C13.3062 15.037 12.6797 14.3791 12.6797 13.6273Z" fill="#0F113A"/>
<path d="M0.461914 74.6215C0.461914 73.8383 1.08846 73.2118 1.87164 73.2118C2.65482 73.2118 3.28137 73.8383 3.28137 74.6215C3.28137 75.3734 2.65482 75.9999 1.87164 75.9999C1.08846 75.9999 0.461914 75.3734 0.461914 74.6215Z" fill="#0F113A"/>
<path d="M0.461914 62.4351C0.461914 61.6519 1.08846 61.0254 1.87164 61.0254C2.65482 61.0254 3.28137 61.6519 3.28137 62.4351C3.28137 63.187 2.65482 63.8135 1.87164 63.8135C1.08846 63.8135 0.461914 63.187 0.461914 62.4351Z" fill="#0F113A"/>
<path d="M0.461914 50.2488C0.461914 49.4657 1.08846 48.8391 1.87164 48.8391C2.65482 48.8391 3.28137 49.4657 3.28137 50.2488C3.28137 51.0007 2.65482 51.6272 1.87164 51.6272C1.08846 51.6272 0.461914 51.0007 0.461914 50.2488Z" fill="#0F113A"/>
<path d="M0.461914 38.0626C0.461914 37.2794 1.08846 36.6528 1.87164 36.6528C2.65482 36.6528 3.28137 37.2794 3.28137 38.0626C3.28137 38.8144 2.65482 39.441 1.87164 39.441C1.08846 39.441 0.461914 38.8144 0.461914 38.0626Z" fill="#0F113A"/>
<path d="M0.461914 25.8449C0.461914 25.0617 1.08846 24.4352 1.87164 24.4352C2.65482 24.4352 3.28137 25.0617 3.28137 25.8449C3.28137 26.5968 2.65482 27.2546 1.87164 27.2546C1.08846 27.2546 0.461914 26.5968 0.461914 25.8449Z" fill="#0F113A"/>
<path d="M0.461914 13.6273C0.461914 12.8441 1.08846 12.2175 1.87164 12.2175C2.65482 12.2175 3.28137 12.8441 3.28137 13.6273C3.28137 14.3791 2.65482 15.037 1.87164 15.037C1.08846 15.037 0.461914 14.3791 0.461914 13.6273Z" fill="#0F113A"/>
<path d="M0.461914 1.40961C0.461914 0.626424 1.08846 -0.00012207 1.87164 -0.00012207C2.65482 -0.00012207 3.28137 0.626424 3.28137 1.40961C3.28137 2.16146 2.65482 2.81933 1.87164 2.81933C1.08846 2.81933 0.461914 2.16146 0.461914 1.40961Z" fill="#0F113A"/>
</svg>
