<svg width="132" height="113" viewBox="0 0 132 113" fill="none" xmlns="http://www.w3.org/2000/svg">
<path d="M127.597 110.951C127.597 109.786 128.528 108.854 129.646 108.854C130.811 108.854 131.742 109.786 131.742 110.951C131.742 112.068 130.811 113 129.646 113C128.528 113 127.597 112.068 127.597 110.951Z" fill="#0F113A"/>
<path d="M127.597 92.8314C127.597 91.6669 128.528 90.7354 129.646 90.7354C130.811 90.7354 131.742 91.6669 131.742 92.8314C131.742 93.9493 130.811 94.8809 129.646 94.8809C128.528 94.8809 127.597 93.9493 127.597 92.8314Z" fill="#0F113A"/>
<path d="M127.597 74.7123C127.597 73.5478 128.528 72.6162 129.646 72.6162C130.811 72.6162 131.742 73.5478 131.742 74.7123C131.742 75.8302 130.811 76.7617 129.646 76.7617C128.528 76.7617 127.597 75.8302 127.597 74.7123Z" fill="#0F113A"/>
<path d="M127.597 56.5932C127.597 55.4287 128.528 54.4971 129.646 54.4971C130.811 54.4971 131.742 55.4287 131.742 56.5932C131.742 57.711 130.811 58.6426 129.646 58.6426C128.528 58.6426 127.597 57.711 127.597 56.5932Z" fill="#0F113A"/>
<path d="M127.597 38.4274C127.597 37.263 128.528 36.3314 129.646 36.3314C130.811 36.3314 131.742 37.263 131.742 38.4274C131.742 39.5453 130.811 40.5235 129.646 40.5235C128.528 40.5235 127.597 39.5453 127.597 38.4274Z" fill="#0F113A"/>
<path d="M127.597 20.2617C127.597 19.0973 128.528 18.1657 129.646 18.1657C130.811 18.1657 131.742 19.0973 131.742 20.2617C131.742 21.3796 130.811 22.3578 129.646 22.3578C128.528 22.3578 127.597 21.3796 127.597 20.2617Z" fill="#0F113A"/>
<path d="M127.597 2.09604C127.597 0.931575 128.528 0 129.646 0C130.811 0 131.742 0.931575 131.742 2.09604C131.742 3.21393 130.811 4.19209 129.646 4.19209C128.528 4.19209 127.597 3.21393 127.597 2.09604Z" fill="#0F113A"/>
<path d="M109.431 110.951C109.431 109.786 110.363 108.854 111.527 108.854C112.692 108.854 113.623 109.786 113.623 110.951C113.623 112.068 112.692 113 111.527 113C110.363 113 109.431 112.068 109.431 110.951Z" fill="#0F113A"/>
<path d="M109.431 92.8314C109.431 91.6669 110.363 90.7354 111.527 90.7354C112.692 90.7354 113.623 91.6669 113.623 92.8314C113.623 93.9493 112.692 94.8809 111.527 94.8809C110.363 94.8809 109.431 93.9493 109.431 92.8314Z" fill="#0F113A"/>
<path d="M109.431 74.7123C109.431 73.5478 110.363 72.6162 111.527 72.6162C112.692 72.6162 113.623 73.5478 113.623 74.7123C113.623 75.8302 112.692 76.7617 111.527 76.7617C110.363 76.7617 109.431 75.8302 109.431 74.7123Z" fill="#0F113A"/>
<path d="M109.431 56.5932C109.431 55.4287 110.363 54.4971 111.527 54.4971C112.692 54.4971 113.623 55.4287 113.623 56.5932C113.623 57.711 112.692 58.6426 111.527 58.6426C110.363 58.6426 109.431 57.711 109.431 56.5932Z" fill="#0F113A"/>
<path d="M109.431 38.4274C109.431 37.263 110.363 36.3314 111.527 36.3314C112.692 36.3314 113.623 37.263 113.623 38.4274C113.623 39.5453 112.692 40.5235 111.527 40.5235C110.363 40.5235 109.431 39.5453 109.431 38.4274Z" fill="#0F113A"/>
<path d="M109.431 20.2617C109.431 19.0973 110.363 18.1657 111.527 18.1657C112.692 18.1657 113.623 19.0973 113.623 20.2617C113.623 21.3796 112.692 22.3578 111.527 22.3578C110.363 22.3578 109.431 21.3796 109.431 20.2617Z" fill="#0F113A"/>
<path d="M109.431 2.09604C109.431 0.931575 110.363 0 111.527 0C112.692 0 113.623 0.931575 113.623 2.09604C113.623 3.21393 112.692 4.19209 111.527 4.19209C110.363 4.19209 109.431 3.21393 109.431 2.09604Z" fill="#0F113A"/>
<path d="M91.2651 110.951C91.2651 109.786 92.1967 108.854 93.3612 108.854C94.5256 108.854 95.4572 109.786 95.4572 110.951C95.4572 112.068 94.5256 113 93.3612 113C92.1967 113 91.2651 112.068 91.2651 110.951Z" fill="#0F113A"/>
<path d="M91.2651 92.8314C91.2651 91.6669 92.1967 90.7354 93.3612 90.7354C94.5256 90.7354 95.4572 91.6669 95.4572 92.8314C95.4572 93.9493 94.5256 94.8809 93.3612 94.8809C92.1967 94.8809 91.2651 93.9493 91.2651 92.8314Z" fill="#0F113A"/>
<path d="M91.2651 74.7123C91.2651 73.5478 92.1967 72.6162 93.3612 72.6162C94.5256 72.6162 95.4572 73.5478 95.4572 74.7123C95.4572 75.8302 94.5256 76.7617 93.3612 76.7617C92.1967 76.7617 91.2651 75.8302 91.2651 74.7123Z" fill="#0F113A"/>
<path d="M91.2651 56.5932C91.2651 55.4287 92.1967 54.4971 93.3612 54.4971C94.5256 54.4971 95.4572 55.4287 95.4572 56.5932C95.4572 57.711 94.5256 58.6426 93.3612 58.6426C92.1967 58.6426 91.2651 57.711 91.2651 56.5932Z" fill="#0F113A"/>
<path d="M91.2651 38.4274C91.2651 37.263 92.1967 36.3314 93.3612 36.3314C94.5256 36.3314 95.4572 37.263 95.4572 38.4274C95.4572 39.5453 94.5256 40.5235 93.3612 40.5235C92.1967 40.5235 91.2651 39.5453 91.2651 38.4274Z" fill="#0F113A"/>
<path d="M91.2651 20.2617C91.2651 19.0973 92.1967 18.1657 93.3612 18.1657C94.5256 18.1657 95.4572 19.0973 95.4572 20.2617C95.4572 21.3796 94.5256 22.3578 93.3612 22.3578C92.1967 22.3578 91.2651 21.3796 91.2651 20.2617Z" fill="#0F113A"/>
<path d="M91.2651 2.09604C91.2651 0.931575 92.1967 0 93.3612 0C94.5256 0 95.4572 0.931575 95.4572 2.09604C95.4572 3.21393 94.5256 4.19209 93.3612 4.19209C92.1967 4.19209 91.2651 3.21393 91.2651 2.09604Z" fill="#0F113A"/>
<path d="M73.0996 110.951C73.0996 109.786 74.0312 108.854 75.1957 108.854C76.3601 108.854 77.2917 109.786 77.2917 110.951C77.2917 112.068 76.3601 113 75.1957 113C74.0312 113 73.0996 112.068 73.0996 110.951Z" fill="#0F113A"/>
<path d="M73.0996 92.8314C73.0996 91.6669 74.0312 90.7354 75.1957 90.7354C76.3601 90.7354 77.2917 91.6669 77.2917 92.8314C77.2917 93.9493 76.3601 94.8809 75.1957 94.8809C74.0312 94.8809 73.0996 93.9493 73.0996 92.8314Z" fill="#0F113A"/>
<path d="M73.0996 74.7123C73.0996 73.5478 74.0312 72.6162 75.1957 72.6162C76.3601 72.6162 77.2917 73.5478 77.2917 74.7123C77.2917 75.8302 76.3601 76.7617 75.1957 76.7617C74.0312 76.7617 73.0996 75.8302 73.0996 74.7123Z" fill="#0F113A"/>
<path d="M73.0996 56.5932C73.0996 55.4287 74.0312 54.4971 75.1957 54.4971C76.3601 54.4971 77.2917 55.4287 77.2917 56.5932C77.2917 57.711 76.3601 58.6426 75.1957 58.6426C74.0312 58.6426 73.0996 57.711 73.0996 56.5932Z" fill="#0F113A"/>
<path d="M73.0996 38.4274C73.0996 37.263 74.0312 36.3314 75.1957 36.3314C76.3601 36.3314 77.2917 37.263 77.2917 38.4274C77.2917 39.5453 76.3601 40.5235 75.1957 40.5235C74.0312 40.5235 73.0996 39.5453 73.0996 38.4274Z" fill="#0F113A"/>
<path d="M73.0996 20.2617C73.0996 19.0973 74.0312 18.1657 75.1957 18.1657C76.3601 18.1657 77.2917 19.0973 77.2917 20.2617C77.2917 21.3796 76.3601 22.3578 75.1957 22.3578C74.0312 22.3578 73.0996 21.3796 73.0996 20.2617Z" fill="#0F113A"/>
<path d="M73.0996 2.09604C73.0996 0.931575 74.0312 0 75.1957 0C76.3601 0 77.2917 0.931575 77.2917 2.09604C77.2917 3.21393 76.3601 4.19209 75.1957 4.19209C74.0312 4.19209 73.0996 3.21393 73.0996 2.09604Z" fill="#0F113A"/>
<path d="M54.9805 110.951C54.9805 109.786 55.9121 108.854 57.0299 108.854C58.1944 108.854 59.126 109.786 59.126 110.951C59.126 112.068 58.1944 113 57.0299 113C55.9121 113 54.9805 112.068 54.9805 110.951Z" fill="#0F113A"/>
<path d="M54.9805 92.8314C54.9805 91.6669 55.9121 90.7354 57.0299 90.7354C58.1944 90.7354 59.126 91.6669 59.126 92.8314C59.126 93.9493 58.1944 94.8809 57.0299 94.8809C55.9121 94.8809 54.9805 93.9493 54.9805 92.8314Z" fill="#0F113A"/>
<path d="M54.9805 38.4274C54.9805 37.263 55.9121 36.3314 57.0299 36.3314C58.1944 36.3314 59.126 37.263 59.126 38.4274C59.126 39.5453 58.1944 40.5235 57.0299 40.5235C55.9121 40.5235 54.9805 39.5453 54.9805 38.4274Z" fill="#0F113A"/>
<path d="M54.9805 74.7123C54.9805 73.5478 55.9121 72.6162 57.0299 72.6162C58.1944 72.6162 59.126 73.5478 59.126 74.7123C59.126 75.8302 58.1944 76.7617 57.0299 76.7617C55.9121 76.7617 54.9805 75.8302 54.9805 74.7123Z" fill="#0F113A"/>
<path d="M54.9805 56.5932C54.9805 55.4287 55.9121 54.4971 57.0299 54.4971C58.1944 54.4971 59.126 55.4287 59.126 56.5932C59.126 57.711 58.1944 58.6426 57.0299 58.6426C55.9121 58.6426 54.9805 57.711 54.9805 56.5932Z" fill="#0F113A"/>
<path d="M18.6489 2.09604C18.6489 0.931575 19.5805 0 20.745 0C21.9094 0 22.841 0.931575 22.841 2.09604C22.841 3.21393 21.9094 4.19209 20.745 4.19209C19.5805 4.19209 18.6489 3.21393 18.6489 2.09604Z" fill="#0F113A"/>
<path d="M36.8149 92.8314C36.8149 91.6669 37.7465 90.7354 38.911 90.7354C40.0755 90.7354 41.007 91.6669 41.007 92.8314C41.007 93.9493 40.0755 94.8809 38.911 94.8809C37.7465 94.8809 36.8149 93.9493 36.8149 92.8314Z" fill="#0F113A"/>
<path d="M54.9805 20.2617C54.9805 19.0973 55.9121 18.1657 57.0299 18.1657C58.1944 18.1657 59.126 19.0973 59.126 20.2617C59.126 21.3796 58.1944 22.3578 57.0299 22.3578C55.9121 22.3578 54.9805 21.3796 54.9805 20.2617Z" fill="#0F113A"/>
<path d="M54.9805 2.09604C54.9805 0.931575 55.9121 0 57.0299 0C58.1944 0 59.126 0.931575 59.126 2.09604C59.126 3.21393 58.1944 4.19209 57.0299 4.19209C55.9121 4.19209 54.9805 3.21393 54.9805 2.09604Z" fill="#0F113A"/>
<path d="M36.8149 110.951C36.8149 109.786 37.7465 108.854 38.911 108.854C40.0755 108.854 41.007 109.786 41.007 110.951C41.007 112.068 40.0755 113 38.911 113C37.7465 113 36.8149 112.068 36.8149 110.951Z" fill="#0F113A"/>
<path d="M36.8149 74.7123C36.8149 73.5478 37.7465 72.6162 38.911 72.6162C40.0755 72.6162 41.007 73.5478 41.007 74.7123C41.007 75.8302 40.0755 76.7617 38.911 76.7617C37.7465 76.7617 36.8149 75.8302 36.8149 74.7123Z" fill="#0F113A"/>
<path d="M36.8149 56.5932C36.8149 55.4287 37.7465 54.4971 38.911 54.4971C40.0755 54.4971 41.007 55.4287 41.007 56.5932C41.007 57.711 40.0755 58.6426 38.911 58.6426C37.7465 58.6426 36.8149 57.711 36.8149 56.5932Z" fill="#0F113A"/>
<path d="M36.8149 38.4274C36.8149 37.263 37.7465 36.3314 38.911 36.3314C40.0755 36.3314 41.007 37.263 41.007 38.4274C41.007 39.5453 40.0755 40.5235 38.911 40.5235C37.7465 40.5235 36.8149 39.5453 36.8149 38.4274Z" fill="#0F113A"/>
<path d="M36.8149 20.2617C36.8149 19.0973 37.7465 18.1657 38.911 18.1657C40.0755 18.1657 41.007 19.0973 41.007 20.2617C41.007 21.3796 40.0755 22.3578 38.911 22.3578C37.7465 22.3578 36.8149 21.3796 36.8149 20.2617Z" fill="#0F113A"/>
<path d="M36.8149 2.09604C36.8149 0.931575 37.7465 0 38.911 0C40.0755 0 41.007 0.931575 41.007 2.09604C41.007 3.21393 40.0755 4.19209 38.911 4.19209C37.7465 4.19209 36.8149 3.21393 36.8149 2.09604Z" fill="#0F113A"/>
<path d="M18.6489 110.951C18.6489 109.786 19.5805 108.854 20.745 108.854C21.9094 108.854 22.841 109.786 22.841 110.951C22.841 112.068 21.9094 113 20.745 113C19.5805 113 18.6489 112.068 18.6489 110.951Z" fill="#0F113A"/>
<path d="M18.6489 92.8314C18.6489 91.6669 19.5805 90.7354 20.745 90.7354C21.9094 90.7354 22.841 91.6669 22.841 92.8314C22.841 93.9493 21.9094 94.8809 20.745 94.8809C19.5805 94.8809 18.6489 93.9493 18.6489 92.8314Z" fill="#0F113A"/>
<path d="M18.6489 74.7123C18.6489 73.5478 19.5805 72.6162 20.745 72.6162C21.9094 72.6162 22.841 73.5478 22.841 74.7123C22.841 75.8302 21.9094 76.7617 20.745 76.7617C19.5805 76.7617 18.6489 75.8302 18.6489 74.7123Z" fill="#0F113A"/>
<path d="M18.6489 56.5932C18.6489 55.4287 19.5805 54.4971 20.745 54.4971C21.9094 54.4971 22.841 55.4287 22.841 56.5932C22.841 57.711 21.9094 58.6426 20.745 58.6426C19.5805 58.6426 18.6489 57.711 18.6489 56.5932Z" fill="#0F113A"/>
<path d="M18.6489 38.4274C18.6489 37.263 19.5805 36.3314 20.745 36.3314C21.9094 36.3314 22.841 37.263 22.841 38.4274C22.841 39.5453 21.9094 40.5235 20.745 40.5235C19.5805 40.5235 18.6489 39.5453 18.6489 38.4274Z" fill="#0F113A"/>
<path d="M18.6489 20.2617C18.6489 19.0973 19.5805 18.1657 20.745 18.1657C21.9094 18.1657 22.841 19.0973 22.841 20.2617C22.841 21.3796 21.9094 22.3578 20.745 22.3578C19.5805 22.3578 18.6489 21.3796 18.6489 20.2617Z" fill="#0F113A"/>
<path d="M0.483398 110.951C0.483398 109.786 1.41497 108.854 2.57944 108.854C3.74391 108.854 4.67548 109.786 4.67548 110.951C4.67548 112.068 3.74391 113 2.57944 113C1.41497 113 0.483398 112.068 0.483398 110.951Z" fill="#0F113A"/>
<path d="M0.483398 92.8314C0.483398 91.6669 1.41497 90.7354 2.57944 90.7354C3.74391 90.7354 4.67548 91.6669 4.67548 92.8314C4.67548 93.9493 3.74391 94.8809 2.57944 94.8809C1.41497 94.8809 0.483398 93.9493 0.483398 92.8314Z" fill="#0F113A"/>
<path d="M0.483398 74.7123C0.483398 73.5478 1.41497 72.6162 2.57944 72.6162C3.74391 72.6162 4.67548 73.5478 4.67548 74.7123C4.67548 75.8302 3.74391 76.7617 2.57944 76.7617C1.41497 76.7617 0.483398 75.8302 0.483398 74.7123Z" fill="#0F113A"/>
<path d="M0.483398 56.5932C0.483398 55.4287 1.41497 54.4971 2.57944 54.4971C3.74391 54.4971 4.67548 55.4287 4.67548 56.5932C4.67548 57.711 3.74391 58.6426 2.57944 58.6426C1.41497 58.6426 0.483398 57.711 0.483398 56.5932Z" fill="#0F113A"/>
<path d="M0.483398 38.4274C0.483398 37.263 1.41497 36.3314 2.57944 36.3314C3.74391 36.3314 4.67548 37.263 4.67548 38.4274C4.67548 39.5453 3.74391 40.5235 2.57944 40.5235C1.41497 40.5235 0.483398 39.5453 0.483398 38.4274Z" fill="#0F113A"/>
<path d="M0.483398 20.2617C0.483398 19.0973 1.41497 18.1657 2.57944 18.1657C3.74391 18.1657 4.67548 19.0973 4.67548 20.2617C4.67548 21.3796 3.74391 22.3578 2.57944 22.3578C1.41497 22.3578 0.483398 21.3796 0.483398 20.2617Z" fill="#0F113A"/>
<path d="M0.483398 2.09604C0.483398 0.931575 1.41497 0 2.57944 0C3.74391 0 4.67548 0.931575 4.67548 2.09604C4.67548 3.21393 3.74391 4.19209 2.57944 4.19209C1.41497 4.19209 0.483398 3.21393 0.483398 2.09604Z" fill="#0F113A"/>
</svg>
