<svg width="66" height="66" viewBox="0 0 66 66" fill="none" xmlns="http://www.w3.org/2000/svg">
<g clip-path="url(#clip0_42_375)">
<path d="M63.7745 64.1768C62.2223 60.6982 60.1037 57.3828 57.3849 54.1872C56.9436 52.1861 54.5623 42.6303 48.0629 35.8614C46.5746 34.3113 45.0334 32.945 43.3522 31.6856C42.0305 30.5649 41.3691 30.5335 40.8958 30.6509C40.6778 30.7054 40.4759 30.8111 40.3069 30.9593C40.1379 31.1074 40.0067 31.2936 39.9241 31.5026C39.8194 31.768 39.7553 32.0629 39.7099 32.3855C38.6377 29.9845 37.3251 27.9287 36.0589 27.3133C33.4522 26.0461 30.3713 24.5816 27.286 23.3274C21.5664 21.0023 16.9782 17.2626 13.6487 12.2124C11.7872 9.38885 10.8619 6.92184 10.5077 5.83361C10.6259 4.3936 11.138 2.8912 11.8151 2.20348C12.3168 1.69366 12.3104 0.873816 11.8007 0.372113C11.2909 -0.129719 10.4709 -0.123016 9.96934 0.386421C8.9542 1.41767 8.30761 3.11266 8.03871 4.77555C7.9115 4.94385 7.8275 5.14076 7.79405 5.34905C7.7604 5.55982 7.72727 5.76877 7.69517 5.97605C6.2076 15.5427 6.24807 21.6264 10.5021 30.3248C10.5588 30.4409 10.6327 30.5478 10.7212 30.6421C11.0777 31.0213 11.4567 31.3787 11.856 31.7124C11.6681 31.8969 11.5409 32.1342 11.4913 32.3927C11.4417 32.6513 11.4721 32.9188 11.5785 33.1597C11.6688 33.3643 11.7571 33.5656 11.844 33.7636C12.8815 36.1279 13.7774 38.1695 15.5884 40.1198C16.5603 41.1664 17.5588 41.7762 18.3613 42.2661C18.5389 42.3747 18.7084 42.4778 18.8668 42.5804C20.1253 43.3948 22.3125 44.0996 24.6563 44.6722C24.387 44.8667 24.2578 45.1295 24.1965 45.3233C24.015 45.8963 24.25 46.5173 24.7679 46.8335C31.0232 50.6519 36.8623 52.0074 42.2406 52.9037C43.5539 53.1225 47.7295 54.0983 51.1188 54.9069C48.7623 55.4603 46.0481 55.6936 43.3082 55.5473C42.5937 55.5115 41.9842 56.0577 41.9462 56.7718C41.9082 57.4861 42.4564 58.0958 43.1706 58.1338C43.7423 58.1643 44.3138 58.1791 44.8827 58.1791C48.8886 58.1791 52.7609 57.4359 55.6174 56.1082C58.0773 59.0402 59.9979 62.0694 61.4094 65.2326C61.5113 65.4612 61.6774 65.6554 61.8874 65.7916C62.0974 65.9278 62.3424 66.0003 62.5927 66.0002C62.7691 66.0002 62.9483 65.9639 63.1197 65.8874C63.7726 65.5958 64.0659 64.83 63.7745 64.1768ZM53.4571 50.0485C51.8145 48.4842 50.0143 46.9456 48.0519 45.4272C48.2099 43.7649 47.7875 41.0318 47.3996 39.0078C50.3803 42.5963 52.3029 46.8307 53.4571 50.0485ZM34.9264 29.6426C35.5138 29.9343 37.2558 32.4222 38.6206 36.851C38.6749 37.0275 38.7663 37.1903 38.8887 37.3286C39.0111 37.4668 39.1616 37.5772 39.3302 37.6525C39.4989 37.7278 39.6816 37.7661 39.8662 37.7649C40.0509 37.7637 40.2331 37.723 40.4007 37.6456C41.7705 37.0135 42.0353 35.3831 42.1568 34.0297C43.2722 34.8875 44.3354 35.811 45.341 36.7952C45.6934 38.2682 46.4564 41.9464 46.5283 44.2767C41.9615 40.9072 37.0474 37.9503 32.2901 35.0894C31.1457 34.4026 30.0032 33.7127 28.8625 33.0197C27.4137 30.5939 26.4835 27.3879 26.0424 25.6139C26.1321 25.6513 26.22 25.6897 26.3105 25.7264C29.3258 26.9525 32.358 28.394 34.9264 29.6426ZM24.2614 24.8129C24.4369 25.6541 25.1031 28.611 26.3395 31.4669C25.975 31.2396 25.6112 31.0117 25.25 30.7832C23.0996 29.4224 20.6336 27.8062 18.5834 25.8417C16.3083 23.6619 13.8122 19.666 12.1564 14.6129C14.5173 17.9151 18.3575 21.9421 24.2614 24.8129ZM16.3222 31.5525C14.786 30.7433 13.6423 29.931 12.7411 29.0071C10.1452 23.646 9.27466 19.4272 9.40524 14.4942C9.97153 16.3756 10.6693 18.2009 11.4888 19.9262C13.0095 23.1275 14.8925 25.8925 16.7913 27.7117C19.0146 29.842 21.6083 31.5437 23.8649 32.9716C26.2092 34.4551 28.6221 35.906 30.9554 37.3092C31.2804 37.5046 31.6063 37.7005 31.9325 37.897C30.3969 37.7649 28.914 37.7989 27.5219 37.8315C26.3183 37.8595 25.1811 37.8859 24.0949 37.8107C22.3148 37.6873 18.0537 37.3221 16.5372 37.1911C15.8683 36.253 15.3541 35.2504 14.8407 34.1283C15.2336 34.104 15.6239 34.048 16.0077 33.9606C16.2654 33.9015 16.4989 33.7649 16.6768 33.5692C16.8546 33.3736 16.9683 33.1281 17.0026 32.8659C17.0368 32.6037 16.99 32.3373 16.8683 32.1025C16.7467 31.8677 16.5561 31.6758 16.3222 31.5525ZM30.8193 47.0684C32.1769 46.9597 33.5437 46.7055 34.6064 46.178C34.8573 46.0535 35.0611 45.8509 35.1871 45.6007C35.3131 45.3505 35.3545 45.0661 35.3052 44.7904C35.256 44.5146 35.1186 44.2622 34.9137 44.0712C34.7089 43.8801 34.4476 43.7606 34.169 43.7306C30.5069 43.337 22.6716 41.9577 20.2736 40.4059C20.0918 40.2883 19.9066 40.1753 19.7107 40.0554C19.1797 39.7312 18.5951 39.3737 18.0261 38.8786C19.9504 39.0424 22.6553 39.2687 23.9874 39.3611C25.1455 39.4414 26.3174 39.4141 27.5581 39.3852C30.2954 39.3215 33.1222 39.2557 36.006 40.3744C39.1857 42.3382 42.3483 44.3881 45.3285 46.6095C47.93 48.5488 50.2461 50.516 52.2909 52.5233C48.7824 51.6838 44.1358 50.5935 42.6661 50.3486C38.932 49.7264 34.9706 48.8752 30.8193 47.0684ZM6.36512 43.6671L5.30139 46.6582C5.25588 46.7862 5.16565 46.8878 5.05195 46.939L2.39442 48.1363C2.01892 48.3054 2.01892 48.9036 2.39442 49.0728L5.05195 50.27C5.16578 50.3214 5.25588 50.4228 5.30139 50.5508L6.36512 53.5419C6.51542 53.9645 7.04691 53.9645 7.19721 53.5419L8.26094 50.5508C8.30645 50.4228 8.39668 50.3212 8.51038 50.27L11.1679 49.0728C11.5434 48.9036 11.5434 48.3054 11.1679 48.1363L8.51038 46.939C8.39655 46.8877 8.30645 46.7862 8.26094 46.6582L7.19721 43.6671C7.04691 43.2445 6.51542 43.2445 6.36512 43.6671ZM27.3578 2.30571L26.5687 4.52444C26.535 4.61944 26.4681 4.69473 26.3836 4.73275L24.4123 5.62092C24.1338 5.74634 24.1338 6.19017 24.4123 6.31559L26.3836 7.20376C26.4681 7.24178 26.5348 7.31707 26.5687 7.41207L27.3578 9.6308C27.4693 9.9443 27.8635 9.9443 27.975 9.6308L28.764 7.41207C28.7978 7.31707 28.8647 7.24178 28.9491 7.20376L30.9205 6.31559C31.1989 6.19004 31.1989 5.74634 30.9205 5.62092L28.9491 4.73275C28.8647 4.69473 28.7978 4.61944 28.764 4.52444L27.975 2.30571C27.8635 1.99221 27.4693 1.99221 27.3578 2.30571ZM48.9346 22.5272C48.9346 23.8101 49.9746 24.85 51.2574 24.85C52.5402 24.85 53.5801 23.8101 53.5801 22.5272C53.5801 21.2444 52.5402 20.2045 51.2574 20.2043C49.9745 20.2043 48.9346 21.2444 48.9346 22.5272ZM36.0903 19.2332C36.0903 19.4908 36.1926 19.7378 36.3747 19.92C36.5569 20.1021 36.804 20.2045 37.0616 20.2045C37.3192 20.2045 37.5662 20.1021 37.7484 19.92C37.9305 19.7378 38.0329 19.4908 38.0329 19.2332C38.0329 18.9756 37.9305 18.7285 37.7484 18.5463C37.5662 18.3642 37.3192 18.2619 37.0616 18.2619C36.804 18.2619 36.5569 18.3642 36.3747 18.5463C36.1926 18.7285 36.0903 18.9756 36.0903 19.2332Z" fill="white"/>
</g>
<defs>
<clipPath id="clip0_42_375">
<rect width="66" height="66" fill="white"/>
</clipPath>
</defs>
</svg>
