<svg width="176" height="150" viewBox="0 0 176 150" fill="none" xmlns="http://www.w3.org/2000/svg">
<path d="M41.5564 12.5008L41.9567 11.5844L41.5564 12.5008ZM175.748 142.336C176.115 142.75 176.077 143.382 175.664 143.748L168.931 149.721C168.518 150.087 167.886 150.049 167.519 149.636C167.153 149.223 167.191 148.591 167.604 148.224L173.588 142.916L168.279 136.931C167.913 136.518 167.951 135.886 168.364 135.519C168.777 135.153 169.409 135.191 169.776 135.604L175.748 142.336ZM0.878166 1.99255C0.329995 1.92526 -0.0598376 1.42633 0.00744951 0.878159C0.0747366 0.330002 0.573664 -0.059845 1.12183 0.00744629L0.878166 1.99255ZM41.9567 11.5844C75.6739 26.3126 92.8384 58.2999 109.63 86.7031C126.514 115.263 142.951 140.08 175.06 142.002L174.94 143.998C141.636 142.005 124.712 116.146 107.908 87.7209C91.0112 59.1392 74.1607 27.834 41.1561 13.4172L41.9567 11.5844ZM1.12183 0.00744629C13.958 1.58307 27.5444 5.28891 41.9567 11.5844L41.1561 13.4172C26.9039 7.19164 13.5046 3.54242 0.878166 1.99255L1.12183 0.00744629Z" fill="#E0E0E0"/>
</svg>
