<svg width="188" height="137" viewBox="0 0 188 137" fill="none" xmlns="http://www.w3.org/2000/svg">
<path d="M49.777 104.113L48.9115 103.612L49.777 104.113ZM187.707 8.70711C188.098 8.31658 188.098 7.68342 187.707 7.29289L181.343 0.928932C180.953 0.538408 180.319 0.538408 179.929 0.928932C179.538 1.31946 179.538 1.95262 179.929 2.34315L185.586 8L179.929 13.6569C179.538 14.0474 179.538 14.6805 179.929 15.0711C180.319 15.4616 180.953 15.4616 181.343 15.0711L187.707 8.70711ZM50.6425 104.614C74.4185 63.5313 95.2846 39.6633 116.769 26.0458C138.225 12.4466 160.408 9 187 9V7C160.227 7 137.608 10.4694 115.699 24.3565C93.8175 38.2253 72.7544 62.414 48.9115 103.612L50.6425 104.614ZM0 137C4.92018 137 14.1631 134.773 23.8423 129.658C33.5461 124.529 43.798 116.441 50.6425 104.614L48.9115 103.612C42.3027 115.032 32.3747 122.886 22.9077 127.89C13.416 132.906 4.49708 135 0 135V137Z" fill="#E0E0E0"/>
</svg>
