<svg width="35" height="35" viewBox="0 0 35 35" fill="none" xmlns="http://www.w3.org/2000/svg">
<path d="M13.1247 15.6771C10.908 15.6771 9.11426 13.8833 9.11426 11.6667C9.11426 9.45 10.908 7.65625 13.1247 7.65625C15.3413 7.65625 17.1351 9.45 17.1351 11.6667C17.1351 13.8833 15.3413 15.6771 13.1247 15.6771ZM13.1247 9.84375C12.6412 9.84375 12.1775 10.0358 11.8357 10.3777C11.4938 10.7195 11.3018 11.1832 11.3018 11.6667C11.3018 12.1501 11.4938 12.6138 11.8357 12.9557C12.1775 13.2975 12.6412 13.4896 13.1247 13.4896C13.6081 13.4896 14.0718 13.2975 14.4137 12.9557C14.7555 12.6138 14.9476 12.1501 14.9476 11.6667C14.9476 11.1832 14.7555 10.7195 14.4137 10.3777C14.0718 10.0358 13.6081 9.84375 13.1247 9.84375Z" fill="#0F113A"/>
<path d="M21.8748 33.177H13.1248C5.20609 33.177 1.82275 29.7937 1.82275 21.875V13.125C1.82275 5.20621 5.20609 1.82288 13.1248 1.82288H18.9582C19.5561 1.82288 20.0519 2.31871 20.0519 2.91663C20.0519 3.51454 19.5561 4.01038 18.9582 4.01038H13.1248C6.40192 4.01038 4.01025 6.40204 4.01025 13.125V21.875C4.01025 28.5979 6.40192 30.9895 13.1248 30.9895H21.8748C28.5978 30.9895 30.9894 28.5979 30.9894 21.875V14.5833C30.9894 13.9854 31.4853 13.4895 32.0832 13.4895C32.6811 13.4895 33.1769 13.9854 33.1769 14.5833V21.875C33.1769 29.7937 29.7936 33.177 21.8748 33.177Z" fill="#0F113A"/>
<path d="M26.25 12.7604C25.6521 12.7604 25.1562 12.2646 25.1562 11.6667V2.91666C25.1562 2.47916 25.4187 2.07083 25.8271 1.91041C26.2354 1.74999 26.7021 1.83749 27.0229 2.14374L29.9396 5.06041C30.3625 5.48333 30.3625 6.18333 29.9396 6.60624C29.5167 7.02916 28.8167 7.02916 28.3937 6.60624L27.3438 5.55624V11.6667C27.3438 12.2646 26.8479 12.7604 26.25 12.7604Z" fill="#0F113A"/>
<path d="M23.3333 6.92706C23.0562 6.92706 22.7792 6.82498 22.5604 6.60623C22.357 6.4004 22.2429 6.12269 22.2429 5.83331C22.2429 5.54393 22.357 5.26622 22.5604 5.06039L25.4771 2.14373C25.9 1.72081 26.6 1.72081 27.0229 2.14373C27.4458 2.56664 27.4458 3.26664 27.0229 3.68956L24.1062 6.60623C23.8875 6.82498 23.6104 6.92706 23.3333 6.92706ZM3.89374 28.7291C3.66064 28.7275 3.43414 28.6516 3.24718 28.5123C3.06023 28.3731 2.92258 28.1778 2.85425 27.955C2.78593 27.7321 2.7905 27.4932 2.86729 27.2732C2.94408 27.0531 3.0891 26.8632 3.28124 26.7312L10.4708 21.9041C12.0458 20.8541 14.2187 20.9708 15.6479 22.1812L16.1292 22.6041C16.8583 23.2312 18.0979 23.2312 18.8125 22.6041L24.8792 17.3979C26.425 16.0708 28.8604 16.0708 30.4208 17.3979L32.7979 19.4396C33.25 19.8333 33.3083 20.5187 32.9146 20.9854C32.5208 21.4375 31.8208 21.4958 31.3687 21.1021L28.9917 19.0604C28.2625 18.4333 27.0375 18.4333 26.3083 19.0604L20.2417 24.2666C18.6958 25.5937 16.2604 25.5937 14.7 24.2666L14.2187 23.8437C13.5479 23.275 12.4396 23.2166 11.6958 23.7271L4.52082 28.5541C4.31666 28.6708 4.09791 28.7291 3.89374 28.7291Z" fill="#0F113A"/>
</svg>
