<svg width="23" height="23" viewBox="0 0 23 23" fill="none" xmlns="http://www.w3.org/2000/svg">
<path d="M8.62467 10.3021C7.16801 10.3021 5.98926 9.12333 5.98926 7.66667C5.98926 6.21 7.16801 5.03125 8.62467 5.03125C10.0813 5.03125 11.2601 6.21 11.2601 7.66667C11.2601 9.12333 10.0813 10.3021 8.62467 10.3021ZM8.62467 6.46875C8.30697 6.46875 8.00227 6.59496 7.77762 6.81961C7.55297 7.04426 7.42676 7.34896 7.42676 7.66667C7.42676 7.98437 7.55297 8.28907 7.77762 8.51372C8.00227 8.73837 8.30697 8.86458 8.62467 8.86458C8.94238 8.86458 9.24708 8.73837 9.47173 8.51372C9.69638 8.28907 9.82259 7.98437 9.82259 7.66667C9.82259 7.34896 9.69638 7.04426 9.47173 6.81961C9.24708 6.59496 8.94238 6.46875 8.62467 6.46875Z" fill="white"/>
<path d="M14.3748 21.802H8.62484C3.42109 21.802 1.19775 19.5787 1.19775 14.375V8.62496C1.19775 3.42121 3.42109 1.19788 8.62484 1.19788H12.4582C12.8511 1.19788 13.1769 1.52371 13.1769 1.91663C13.1769 2.30954 12.8511 2.63538 12.4582 2.63538H8.62484C4.20692 2.63538 2.63525 4.20704 2.63525 8.62496V14.375C2.63525 18.7929 4.20692 20.3645 8.62484 20.3645H14.3748C18.7928 20.3645 20.3644 18.7929 20.3644 14.375V9.58329C20.3644 9.19038 20.6903 8.86454 21.0832 8.86454C21.4761 8.86454 21.8019 9.19038 21.8019 9.58329V14.375C21.8019 19.5787 19.5786 21.802 14.3748 21.802Z" fill="white"/>
<path d="M2.55845 18.8791C2.40527 18.8781 2.25643 18.8281 2.13357 18.7366C2.01072 18.6451 1.92026 18.5168 1.87536 18.3704C1.83046 18.2239 1.83346 18.067 1.88393 17.9223C1.93439 17.7777 2.02969 17.6529 2.15595 17.5662L6.88053 14.3941C7.91553 13.7041 9.34345 13.7808 10.2826 14.5762L10.5989 14.8541C11.078 15.2662 11.8926 15.2662 12.3622 14.8541L16.3489 11.4329C17.3743 10.5608 18.9651 10.5608 19.9905 11.4329L21.5526 12.7745C21.8497 13.0333 21.888 13.4837 21.6293 13.7904C21.3705 14.0875 20.9201 14.1258 20.6135 13.867L19.0514 12.5254C18.5722 12.1133 17.7576 12.1133 17.288 12.5254L13.3014 15.9466C12.2855 16.8187 10.6851 16.8187 9.6597 15.9466L9.34345 15.6687C8.90262 15.295 8.17428 15.2566 7.68553 15.592L2.97053 18.7641C2.83637 18.8408 2.69262 18.8791 2.55845 18.8791Z" fill="white"/>
<path d="M19.2649 0.182945C19.3267 -0.0609808 19.6733 -0.060982 19.7351 0.182943L20.3229 2.50161C20.3448 2.58788 20.4121 2.65525 20.4984 2.67712L22.8171 3.26489C23.061 3.32673 23.061 3.67327 22.8171 3.73511L20.4984 4.32288C20.4121 4.34475 20.3448 4.41212 20.3229 4.49839L19.7351 6.81706C19.6733 7.06098 19.3267 7.06098 19.2649 6.81706L18.6771 4.49839C18.6552 4.41212 18.5879 4.34475 18.5016 4.32288L16.1829 3.73511C15.939 3.67327 15.939 3.32673 16.1829 3.26489L18.5016 2.67712C18.5879 2.65525 18.6552 2.58788 18.6771 2.50161L19.2649 0.182945Z" fill="white"/>
</svg>
