<svg width="37" height="39" viewBox="0 0 37 39" fill="none" xmlns="http://www.w3.org/2000/svg">
<path d="M0.000190735 3.43159V29.0468C0.00244141 29.801 0.303028 30.5236 0.836296 31.0569C1.36956 31.5901 2.09218 31.8907 2.84633 31.893H5.69247V37.6706C5.69024 37.9239 5.76103 38.1724 5.89635 38.3864C6.03166 38.6004 6.22578 38.771 6.45548 38.8775C6.68518 38.9841 6.94073 39.0223 7.19155 38.9874C7.44237 38.9526 7.67783 38.8462 7.86976 38.681L15.654 31.893H34.1539C34.908 31.8907 35.6306 31.5901 36.1639 31.0569C36.6972 30.5236 36.9977 29.801 37 29.0468V3.43159C36.9977 2.67744 36.6972 1.95482 36.1639 1.42155C35.6306 0.888285 34.908 0.587702 34.1539 0.585449H2.84633C2.09218 0.587702 1.36956 0.888285 0.836296 1.42155C0.303028 1.95482 0.00244141 2.67744 0.000190735 3.43159Z" fill="#FF4F47"/>
<path d="M7.11543 10.5468H29.8845C30.262 10.5468 30.6239 10.3969 30.8908 10.13C31.1577 9.86314 31.3076 9.50117 31.3076 9.12375C31.3076 8.74633 31.1577 8.38437 30.8908 8.11749C30.6239 7.85061 30.262 7.70068 29.8845 7.70068H7.11543C6.73801 7.70068 6.37605 7.85061 6.10917 8.11749C5.84229 8.38437 5.69236 8.74633 5.69236 9.12375C5.69236 9.50117 5.84229 9.86314 6.10917 10.13C6.37605 10.3969 6.73801 10.5468 7.11543 10.5468ZM7.11543 17.6622H29.8845C30.262 17.6622 30.6239 17.5122 30.8908 17.2454C31.1577 16.9785 31.3076 16.6165 31.3076 16.2391C31.3076 15.8617 31.1577 15.4997 30.8908 15.2328C30.6239 14.966 30.262 14.816 29.8845 14.816H7.11543C6.73801 14.816 6.37605 14.966 6.10917 15.2328C5.84229 15.4997 5.69236 15.8617 5.69236 16.2391C5.69236 16.6165 5.84229 16.9785 6.10917 17.2454C6.37605 17.5122 6.73801 17.6622 7.11543 17.6622ZM11.3846 24.7775H29.8845C30.262 24.7775 30.6239 24.6276 30.8908 24.3607C31.1577 24.0938 31.3076 23.7319 31.3076 23.3544C31.3076 22.977 31.1577 22.6151 30.8908 22.3482C30.6239 22.0813 30.262 21.9314 29.8845 21.9314H11.3846C11.0072 21.9314 10.6453 22.0813 10.3784 22.3482C10.1115 22.6151 9.96157 22.977 9.96157 23.3544C9.96157 23.7319 10.1115 24.0938 10.3784 24.3607C10.6453 24.6276 11.0072 24.7775 11.3846 24.7775Z" fill="white"/>
</svg>
