<svg width="19" height="19" viewBox="0 0 19 19" fill="none" xmlns="http://www.w3.org/2000/svg">
<g clip-path="url(#clip0_52_171)">
<path d="M6.72917 3.95831C7.38625 3.95831 7.91667 4.48873 7.91667 5.14581C7.91667 5.8029 7.38625 6.33331 6.72917 6.33331C6.07208 6.33331 5.54167 5.8029 5.54167 5.14581C5.54167 4.48873 6.07208 3.95831 6.72917 3.95831ZM12.5242 6.47581L12.2471 5.35165C12.16 5.00331 11.8433 4.74998 11.4792 4.74998C11.115 4.74998 10.7983 4.9954 10.7113 5.35165L10.4342 6.4679L9.32583 6.72123C8.96958 6.8004 8.71625 7.11706 8.71625 7.48123C8.71625 7.8454 8.95375 8.16206 9.30208 8.25706L10.4342 8.56581L10.7192 9.6979C10.8063 10.0462 11.1229 10.2996 11.4871 10.2996C11.8513 10.2996 12.1679 10.0541 12.255 9.6979L12.5321 8.57373L13.6563 8.29665C14.0046 8.20956 14.2579 7.8929 14.2579 7.52873C14.2579 7.16456 14.0125 6.8479 13.6563 6.76081L12.5321 6.48373L12.5242 6.47581ZM13.1496 3.86331L14.5429 4.44915L15.0971 5.83456C15.1554 5.98223 15.2569 6.10893 15.3882 6.19822C15.5194 6.2875 15.6746 6.33525 15.8333 6.33525C15.9921 6.33525 16.1472 6.2875 16.2785 6.19822C16.4098 6.10893 16.5112 5.98223 16.5696 5.83456L17.1238 4.45706L18.5013 3.9029C18.6489 3.84454 18.7756 3.74312 18.8649 3.61183C18.9542 3.48053 19.0019 3.32542 19.0019 3.16665C19.0019 3.00787 18.9542 2.85276 18.8649 2.72146C18.7756 2.59017 18.6489 2.48876 18.5013 2.4304L17.1238 1.87623L16.5696 0.498729C16.5112 0.351066 16.4098 0.224363 16.2785 0.135077C16.1472 0.0457905 15.9921 -0.00195312 15.8333 -0.00195312C15.6746 -0.00195312 15.5194 0.0457905 15.3882 0.135077C15.2569 0.224363 15.1554 0.351066 15.0971 0.498729L14.5508 1.86831L13.1813 2.39081C12.8804 2.50165 12.6746 2.79456 12.6667 3.11915C12.6667 3.44373 12.8488 3.73665 13.1496 3.86331ZM19 7.12498V15.0416C19 17.2266 17.2267 19 15.0417 19H3.95833C1.77333 19 0 17.2266 0 15.0416V3.95831C0 1.77331 1.77333 -2.10773e-05 3.95833 -2.10773e-05H11.875C12.3104 -2.10773e-05 12.6667 0.356229 12.6667 0.791646C12.6667 1.22706 12.3104 1.58331 11.875 1.58331H3.95833C2.65208 1.58331 1.58333 2.65206 1.58333 3.95831V9.1754L2.02667 8.73206C3.0875 7.67123 4.82125 7.67123 5.89 8.73206L10.3075 13.1496C10.515 13.355 10.7953 13.4703 11.0873 13.4703C11.3793 13.4703 11.6596 13.355 11.8671 13.1496L12.3263 12.6904C13.3871 11.6296 15.1208 11.6296 16.1896 12.6904L17.4246 13.9254V7.12498C17.4246 6.68956 17.7808 6.33331 18.2163 6.33331C18.6517 6.33331 19.0079 6.68956 19.0079 7.12498H19ZM17.2267 15.9679L15.0575 13.7987C14.8412 13.5855 14.5497 13.466 14.246 13.466C13.9423 13.466 13.6509 13.5855 13.4346 13.7987L12.9754 14.2579C12.4705 14.7599 11.7874 15.0417 11.0754 15.0417C10.3634 15.0417 9.68034 14.7599 9.17542 14.2579L4.75792 9.8404C4.54165 9.62719 4.25015 9.50766 3.94646 9.50766C3.64276 9.50766 3.35127 9.62719 3.135 9.8404L1.5675 11.4079V15.0416C1.5675 16.3479 2.63625 17.4166 3.9425 17.4166H15.0258C16.0075 17.4166 16.8467 16.8229 17.2108 15.9679H17.2267Z" fill="#0094FF"/>
</g>
<defs>
<clipPath id="clip0_52_171">
<rect width="19" height="19" fill="white"/>
</clipPath>
</defs>
</svg>
