<svg width="20" height="20" viewBox="0 0 20 20" fill="none" xmlns="http://www.w3.org/2000/svg">
<g clip-path="url(#clip0_30_399)">
<path d="M10 0C4.48583 0 0 4.48583 0 10C0 15.5142 4.48583 20 10 20C15.5142 20 20 15.5142 20 10C20 4.48583 15.5142 0 10 0ZM10 18.3333C5.405 18.3333 1.66667 14.595 1.66667 10C1.66667 8.755 1.94167 7.57333 2.43333 6.51083L3.82167 7.97C4.0425 8.20167 4.34833 8.33333 4.66833 8.33333H6.2925C6.5325 8.33333 6.7625 8.42833 6.9325 8.59833L7.24333 8.90917C7.40833 9.07417 7.50083 9.2975 7.50083 9.53V10.3325C7.50083 10.6533 7.62833 10.96 7.855 11.1867L8.84667 12.1783C9.0525 12.3842 9.16833 12.6633 9.16833 12.9542V14.925C9.16833 15.4267 9.575 15.8333 10.0767 15.8333H10.2542C10.6083 15.8333 10.93 15.6275 11.0783 15.3058L12.9458 11.2592C13.0532 11.0265 13.0721 10.7626 12.9989 10.5171C12.9257 10.2715 12.7655 10.061 12.5483 9.925L10.4133 8.59083C10.1442 8.4225 9.83323 8.33327 9.51583 8.33333H8.32333C8.06417 8.33333 7.815 8.23 7.63167 8.04667L7.13833 7.55333C7.07655 7.49165 7.02754 7.41838 6.99409 7.33774C6.96065 7.25709 6.94344 7.17064 6.94344 7.08333C6.94344 6.99603 6.96065 6.90958 6.99409 6.82893C7.02754 6.74828 7.07655 6.67502 7.13833 6.61333L7.57917 6.1725C7.67783 6.07379 7.80508 6.00867 7.94285 5.98638C8.08062 5.96409 8.22191 5.98577 8.34667 6.04833L9.08 6.415C9.22691 6.48845 9.39321 6.51382 9.55534 6.48749C9.71747 6.46117 9.86721 6.38449 9.98333 6.26833L9.98583 6.26583C10.1093 6.1425 10.188 5.98138 10.2093 5.80816C10.2306 5.63494 10.1933 5.45957 10.1033 5.31L9.40583 4.14667C9.33409 4.02815 9.29714 3.89185 9.2992 3.75332C9.30127 3.6148 9.34226 3.47966 9.4175 3.36333C9.66417 2.9825 10.0675 2.36167 10.5142 1.68333C13.2408 1.85 15.6183 3.33333 17.015 5.505L15.69 6.26917C15.2817 6.50417 15.0792 6.98167 15.1942 7.43833L15.7167 9.5275C15.7917 9.8275 15.9942 10.0792 16.2708 10.2167L18.2483 11.1983C17.6658 15.2275 14.1892 18.3333 10.0017 18.3333H10Z" fill="#131313"/>
</g>
<defs>
<clipPath id="clip0_30_399">
<rect width="20" height="20" fill="white"/>
</clipPath>
</defs>
</svg>
