<svg width="25" height="25" viewBox="0 0 25 25" fill="none" xmlns="http://www.w3.org/2000/svg">
<g clip-path="url(#clip0_30_382)">
<path d="M12.5 21.875C12.5 22.1513 12.3903 22.4162 12.1949 22.6116C11.9996 22.8069 11.7346 22.9167 11.4583 22.9167H5.20833C2.33646 22.9167 0 20.5802 0 17.7083V5.20833C0 2.33646 2.33646 0 5.20833 0H17.7083C20.5802 0 22.9167 2.33646 22.9167 5.20833V11.4583C22.9167 11.7346 22.8069 11.9996 22.6116 12.1949C22.4162 12.3903 22.1513 12.5 21.875 12.5C21.5987 12.5 21.3338 12.3903 21.1384 12.1949C20.9431 11.9996 20.8333 11.7346 20.8333 11.4583V5.20833C20.8333 3.48542 19.4312 2.08333 17.7083 2.08333H5.20833C3.48542 2.08333 2.08333 3.48542 2.08333 5.20833V12.4573L5.00833 9.53229C5.77647 8.76528 6.81761 8.33448 7.90312 8.33448C8.98864 8.33448 10.0298 8.76528 10.7979 9.53229L16.3615 15.0958C16.5568 15.2912 16.6665 15.5561 16.6665 15.8323C16.6665 16.1085 16.5568 16.3734 16.3615 16.5688C16.1661 16.7641 15.9012 16.8738 15.625 16.8738C15.3488 16.8738 15.0839 16.7641 14.8885 16.5688L9.325 11.0052C8.94728 10.6293 8.43604 10.4182 7.90312 10.4182C7.37021 10.4182 6.85897 10.6293 6.48125 11.0052L2.08333 15.4031V17.7083C2.08333 19.4312 3.48542 20.8333 5.20833 20.8333H11.4583C11.7346 20.8333 11.9996 20.9431 12.1949 21.1384C12.3903 21.3338 12.5 21.5987 12.5 21.875ZM15.625 3.64583C17.3479 3.64583 18.75 5.04792 18.75 6.77083C18.75 8.49375 17.3479 9.89583 15.625 9.89583C13.9021 9.89583 12.5 8.49375 12.5 6.77083C12.5 5.04792 13.9021 3.64583 15.625 3.64583ZM15.625 5.72917C15.3568 5.74116 15.1035 5.85615 14.918 6.05019C14.7324 6.24423 14.6289 6.50236 14.6289 6.77083C14.6289 7.03931 14.7324 7.29744 14.918 7.49148C15.1035 7.68551 15.3568 7.8005 15.625 7.8125C15.8932 7.8005 16.1465 7.68551 16.332 7.49148C16.5176 7.29744 16.6211 7.03931 16.6211 6.77083C16.6211 6.50236 16.5176 6.24423 16.332 6.05019C16.1465 5.85615 15.8932 5.74116 15.625 5.72917ZM23.9583 18.75H20.8333V15.625C20.8333 15.3487 20.7236 15.0838 20.5282 14.8884C20.3329 14.6931 20.0679 14.5833 19.7917 14.5833C19.5154 14.5833 19.2504 14.6931 19.0551 14.8884C18.8597 15.0838 18.75 15.3487 18.75 15.625V18.75H15.625C15.3487 18.75 15.0838 18.8597 14.8884 19.0551C14.6931 19.2504 14.5833 19.5154 14.5833 19.7917C14.5833 20.0679 14.6931 20.3329 14.8884 20.5282C15.0838 20.7236 15.3487 20.8333 15.625 20.8333H18.75V23.9583C18.75 24.2346 18.8597 24.4996 19.0551 24.6949C19.2504 24.8903 19.5154 25 19.7917 25C20.0679 25 20.3329 24.8903 20.5282 24.6949C20.7236 24.4996 20.8333 24.2346 20.8333 23.9583V20.8333H23.9583C24.2346 20.8333 24.4996 20.7236 24.6949 20.5282C24.8903 20.3329 25 20.0679 25 19.7917C25 19.5154 24.8903 19.2504 24.6949 19.0551C24.4996 18.8597 24.2346 18.75 23.9583 18.75Z" fill="#131313"/>
</g>
<defs>
<clipPath id="clip0_30_382">
<rect width="25" height="25" fill="white"/>
</clipPath>
</defs>
</svg>
