<svg width="89" height="93" viewBox="0 0 89 93" fill="none" xmlns="http://www.w3.org/2000/svg">
<g clip-path="url(#clip0_30_407)">
<path d="M75.8909 61.4511V61.1358C75.8909 59.6599 75.3059 58.2445 74.2645 57.2009C73.2231 56.1573 71.8107 55.571 70.3379 55.571H18.51C17.0373 55.571 15.6249 56.1573 14.5835 57.2009C13.5421 58.2445 12.957 59.6599 12.957 61.1358V61.4511L15.2893 73.0444C17.6513 78.8451 21.684 83.8092 26.873 87.3036C32.0621 90.798 38.1722 92.6642 44.424 92.6642C50.6758 92.6642 56.7859 90.798 61.9749 87.3036C67.164 83.8092 71.1967 78.8451 73.5587 73.0444L75.8909 61.4511Z" fill="#C2C2C2"/>
<path d="M11.1056 14.7629V40.7318H9.25457C5.16387 40.7318 1.85059 34.9259 1.85059 27.7474C1.85059 20.5688 5.16387 14.7629 9.25457 14.7629H11.1056ZM77.7415 14.7629V40.7318H79.5925C83.6832 40.7318 86.9965 34.9259 86.9965 27.7474C86.9965 20.5688 83.6832 14.7629 79.5925 14.7629H77.7415Z" fill="#C2C2C2"/>
<path d="M79.5928 25.8924V40.7318C79.5928 44.6674 78.0327 48.4419 75.2556 51.2248C72.4786 54.0077 68.7121 55.5711 64.7848 55.5711H24.0629C20.1355 55.5711 16.3691 54.0077 13.592 51.2248C10.815 48.4419 9.25488 44.6674 9.25488 40.7318V14.7629C9.25488 10.8273 10.815 7.05284 13.592 4.26993C16.3691 1.48701 20.1355 -0.076416 24.0629 -0.076416H61.0828L79.5928 25.8924Z" fill="#B3B3B3"/>
<path d="M9.25488 25.8924V40.7318C9.25488 44.6674 10.815 48.4419 13.592 51.2248C16.3691 54.0077 20.1355 55.5711 24.0629 55.5711H64.7848C68.7121 55.5711 72.4786 54.0077 75.2556 51.2248C78.0327 48.4419 79.5928 44.6674 79.5928 40.7318V14.7629C79.5928 10.8273 78.0327 7.05284 75.2556 4.26993C72.4786 1.48701 68.7121 -0.076416 64.7848 -0.076416H27.7648L9.25488 25.8924Z" fill="#B3B3B3"/>
<path d="M72.1891 25.8924V40.7318C72.1891 42.6996 71.409 44.5868 70.0205 45.9783C68.632 47.3698 66.7488 48.1515 64.7851 48.1515H24.0632C22.0995 48.1515 20.2163 47.3698 18.8278 45.9783C17.4392 44.5868 16.6592 42.6996 16.6592 40.7318V22.1826C16.6592 20.2148 17.4392 18.3276 18.8278 16.9361C20.2163 15.5447 22.0995 14.7629 24.0632 14.7629H61.0831L72.1891 25.8924Z" fill="#F8F8F8"/>
<path d="M16.6586 25.8924V40.7318C16.6586 42.6996 17.4386 44.5868 18.8271 45.9783C20.2157 47.3698 22.0989 48.1515 24.0625 48.1515H64.7845C66.7481 48.1515 68.6314 47.3698 70.0199 45.9783C71.4084 44.5868 72.1885 42.6996 72.1885 40.7318V22.1826C72.1885 20.2148 71.4084 18.3276 70.0199 16.9361C68.6314 15.5447 66.7481 14.7629 64.7845 14.7629H27.7645L16.6586 25.8924Z" fill="#F8F8F8"/>
<path d="M28.69 31.4572C31.2457 31.4572 33.3175 29.381 33.3175 26.8199C33.3175 24.2588 31.2457 22.1826 28.69 22.1826C26.1343 22.1826 24.0625 24.2588 24.0625 26.8199C24.0625 29.381 26.1343 31.4572 28.69 31.4572Z" fill="#707070"/>
<path d="M60.1578 31.381C62.7135 31.381 64.7853 29.3048 64.7853 26.7437C64.7853 24.1826 62.7135 22.1064 60.1578 22.1064C57.6021 22.1064 55.5303 24.1826 55.5303 26.7437C55.5303 29.3048 57.6021 31.381 60.1578 31.381Z" fill="#707070"/>
<path d="M64.6915 25.8922C64.7507 26.1979 64.7817 26.5083 64.7841 26.8197C64.7841 27.7368 64.5127 28.6334 64.0042 29.396C63.4957 30.1586 62.773 30.753 61.9274 31.104C61.0819 31.455 60.1515 31.5468 59.2538 31.3679C58.3562 31.1889 57.5316 30.7473 56.8845 30.0987C56.2373 29.4502 55.7966 28.6239 55.618 27.7244C55.4395 26.8248 55.5311 25.8924 55.8813 25.0451C56.2316 24.1977 56.8247 23.4735 57.5857 22.9639C58.3467 22.4543 59.2414 22.1824 60.1566 22.1824C60.4673 22.1848 60.7771 22.2158 61.0821 22.2751M40.7211 33.3119H48.1251C48.616 33.3119 49.0868 33.5073 49.434 33.8552C49.7811 34.203 49.9761 34.6748 49.9761 35.1668C49.9761 36.6427 49.3911 38.0581 48.3497 39.1017C47.3083 40.1453 45.8959 40.7316 44.4231 40.7316C42.9504 40.7316 41.5379 40.1453 40.4966 39.1017C39.4552 38.0581 38.8701 36.6427 38.8701 35.1668C38.8701 34.6748 39.0651 34.203 39.4123 33.8552C39.7594 33.5073 40.2302 33.3119 40.7211 33.3119Z" fill="#707070"/>
<path d="M15.5058 72.4045C13.0347 79.4736 7.15964 88.0322 3.97778 87.025C0.795913 86.0178 1.5067 75.8139 3.97778 68.7466C6.44886 61.6794 9.77325 60.4255 12.957 61.4457C16.1407 62.4659 17.9972 65.3373 15.5058 72.4045ZM73.342 72.4045C75.8131 79.4736 81.6882 88.0267 84.8682 87.025C88.0482 86.0233 87.3411 75.8139 84.8682 68.7466C82.3953 61.6794 79.0746 60.4255 75.8909 61.4457C72.7072 62.4659 70.8506 65.3373 73.342 72.4045Z" fill="#B3B3B3"/>
<path d="M44.4235 79.685C48.5126 79.685 51.8275 76.3631 51.8275 72.2654C51.8275 68.1676 48.5126 64.8457 44.4235 64.8457C40.3344 64.8457 37.0195 68.1676 37.0195 72.2654C37.0195 76.3631 40.3344 79.685 44.4235 79.685Z" fill="#707070"/>
</g>
<defs>
<clipPath id="clip0_30_407">
<rect width="89" height="93" fill="white"/>
</clipPath>
</defs>
</svg>
