<svg width="25" height="25" viewBox="0 0 25 25" fill="none" xmlns="http://www.w3.org/2000/svg">
<g clip-path="url(#clip0_30_378)">
<path d="M12.5003 20.8333C14.7097 20.8309 16.8279 19.9521 18.3901 18.3898C19.9524 16.8276 20.8312 14.7094 20.8337 12.5V8.33333C20.8337 6.1232 19.9557 4.00358 18.3929 2.44078C16.8301 0.877974 14.7105 0 12.5003 0C10.2902 0 8.17057 0.877974 6.60777 2.44078C5.04497 4.00358 4.16699 6.1232 4.16699 8.33333V12.5C4.16947 14.7094 5.04824 16.8276 6.61051 18.3898C8.17277 19.9521 10.2909 20.8309 12.5003 20.8333ZM12.5003 2.08333C13.9759 2.08607 15.403 2.61028 16.5295 3.56333C17.656 4.51638 18.4094 5.83694 18.6566 7.29167H15.6253C15.3491 7.29167 15.0841 7.40141 14.8888 7.59676C14.6934 7.79211 14.5837 8.05707 14.5837 8.33333C14.5837 8.6096 14.6934 8.87455 14.8888 9.0699C15.0841 9.26525 15.3491 9.375 15.6253 9.375H18.7503V11.4583H15.6253C15.3491 11.4583 15.0841 11.5681 14.8888 11.7634C14.6934 11.9588 14.5837 12.2237 14.5837 12.5C14.5837 12.7763 14.6934 13.0412 14.8888 13.2366C15.0841 13.4319 15.3491 13.5417 15.6253 13.5417H18.6566C18.4117 14.9974 17.659 16.3193 16.5319 17.2726C15.4049 18.2259 13.9765 18.749 12.5003 18.749C11.0242 18.749 9.59575 18.2259 8.46871 17.2726C7.34166 16.3193 6.5889 14.9974 6.34408 13.5417H9.37533C9.65159 13.5417 9.91654 13.4319 10.1119 13.2366C10.3072 13.0412 10.417 12.7763 10.417 12.5C10.417 12.2237 10.3072 11.9588 10.1119 11.7634C9.91654 11.5681 9.65159 11.4583 9.37533 11.4583H6.25033V9.375H9.37533C9.65159 9.375 9.91654 9.26525 10.1119 9.0699C10.3072 8.87455 10.417 8.6096 10.417 8.33333C10.417 8.05707 10.3072 7.79211 10.1119 7.59676C9.91654 7.40141 9.65159 7.29167 9.37533 7.29167H6.34408C6.59123 5.83694 7.34462 4.51638 8.47113 3.56333C9.59763 2.61028 11.0248 2.08607 12.5003 2.08333Z" fill="#131313"/>
<path d="M23.9583 12.5C23.6821 12.5 23.4171 12.6097 23.2218 12.8051C23.0264 13.0004 22.9167 13.2654 22.9167 13.5417C22.9139 16.0272 21.9253 18.4102 20.1677 20.1677C18.4102 21.9253 16.0272 22.9139 13.5417 22.9167H11.4583C8.97286 22.9136 6.59005 21.9249 4.83256 20.1674C3.07506 18.4099 2.08637 16.0271 2.08333 13.5417C2.08333 13.2654 1.97359 13.0004 1.77824 12.8051C1.58289 12.6097 1.31793 12.5 1.04167 12.5C0.765399 12.5 0.500448 12.6097 0.305097 12.8051C0.109747 13.0004 0 13.2654 0 13.5417C0.00358382 16.5795 1.21195 19.4919 3.36003 21.64C5.5081 23.7881 8.42049 24.9964 11.4583 25H13.5417C16.5795 24.9964 19.4919 23.7881 21.64 21.64C23.788 19.4919 24.9964 16.5795 25 13.5417C25 13.2654 24.8903 13.0004 24.6949 12.8051C24.4996 12.6097 24.2346 12.5 23.9583 12.5Z" fill="#131313"/>
</g>
<defs>
<clipPath id="clip0_30_378">
<rect width="25" height="25" fill="white"/>
</clipPath>
</defs>
</svg>
