<svg width="19" height="19" viewBox="0 0 19 19" fill="none" xmlns="http://www.w3.org/2000/svg">
<g clip-path="url(#clip0_52_167)">
<path d="M17.8719 8.03706C17.5379 7.89801 17.1702 7.8614 16.8154 7.93188C16.4605 8.00236 16.1347 8.17676 15.8793 8.43289L15.5325 8.77964C15.1892 7.95515 14.5789 7.26986 13.7995 6.83373C14.1918 6.46441 14.5043 6.01871 14.7177 5.52408C14.9312 5.02944 15.0412 4.49634 15.0409 3.9576C15.0409 1.77498 13.2652 -0.000732377 11.0825 -0.000732377C10.4678 -0.000640528 9.86153 0.142719 9.31185 0.417971C8.76217 0.693223 8.28421 1.09279 7.91588 1.58498C7.54767 1.09266 7.06973 0.692986 6.52002 0.41772C5.97031 0.142453 5.36399 -0.0008254 4.74921 -0.000732377C3.69984 0.00094351 2.69396 0.418653 1.9521 1.16082C1.21023 1.90298 0.792923 2.90903 0.791667 3.95839C0.791667 5.08968 1.26904 6.11252 2.033 6.83452C1.41715 7.17774 0.904047 7.67909 0.546665 8.28684C0.189283 8.89458 0.000568202 9.58669 0 10.2917L0 15.0417C0 17.2244 1.77571 19.0001 3.95833 19.0001H11.875C12.6582 18.9993 13.4237 18.7665 14.0747 18.3311C14.7258 17.8958 15.2333 17.2773 15.5333 16.5538L15.88 16.9006C16.1353 17.1568 16.4609 17.3313 16.8156 17.4019C17.1703 17.4725 17.538 17.4361 17.8719 17.2972C18.2064 17.1596 18.4923 16.9255 18.6932 16.6248C18.8941 16.324 19.0009 15.9702 19 15.6086V9.72727C19 8.98468 18.5567 8.32206 17.8719 8.03864V8.03706ZM11.0833 1.58339C12.3928 1.58339 13.4583 2.64898 13.4583 3.95839C13.4583 5.26781 12.3928 6.33339 11.0833 6.33339C9.77392 6.33339 8.70833 5.26781 8.70833 3.95839C8.70833 2.64898 9.77392 1.58339 11.0833 1.58339ZM4.75 1.58339C6.05942 1.58339 7.125 2.64898 7.125 3.95839C7.125 5.26781 6.05942 6.33339 4.75 6.33339C3.44058 6.33339 2.375 5.26781 2.375 3.95839C2.375 2.64898 3.44058 1.58339 4.75 1.58339ZM14.25 15.0417C14.25 16.3511 13.1844 17.4167 11.875 17.4167H3.95833C2.64892 17.4167 1.58333 16.3511 1.58333 15.0417V10.2917C1.58333 8.98231 2.64892 7.91673 3.95833 7.91673H11.875C13.1844 7.91673 14.25 8.98231 14.25 10.2917V15.0417ZM17.4167 15.607C17.4167 15.7424 17.3343 15.8049 17.2655 15.8334C17.2211 15.8541 17.1714 15.8602 17.1234 15.8506C17.0754 15.8411 17.0317 15.8165 16.9987 15.7804L15.8333 14.615V10.7184L16.9987 9.5531C17.0317 9.51698 17.0754 9.49236 17.1234 9.48282C17.1714 9.47327 17.2211 9.47932 17.2655 9.50006C17.3115 9.51684 17.3509 9.54783 17.3781 9.58854C17.4053 9.62925 17.4188 9.67757 17.4167 9.72648V15.607Z" fill="#0094FF"/>
</g>
<defs>
<clipPath id="clip0_52_167">
<rect width="19" height="19" fill="white"/>
</clipPath>
</defs>
</svg>
