<svg width="71" height="71" viewBox="0 0 71 71" fill="none" xmlns="http://www.w3.org/2000/svg">
<path d="M66.3994 22.513L62.8494 47.8955C62.0803 53.2205 59.1515 56.0309 54.3294 56.0309C53.9448 56.0309 53.5603 56.0013 53.1461 55.9717C53.2317 55.394 53.2712 54.8103 53.2644 54.2263V28.5776C53.4145 27.5065 53.3134 26.4152 52.969 25.39C52.6247 24.3647 52.0465 23.4336 51.2803 22.6703C50.5141 21.907 49.5809 21.3324 48.5544 20.9919C47.5278 20.6513 46.4362 20.5543 45.3657 20.7084H15.8711C15.8711 20.6492 15.9007 20.5605 15.9007 20.5013L16.6107 15.5313C16.7035 14.2652 17.0468 13.03 17.6207 11.8976C18.1945 10.7651 18.9875 9.75787 19.9536 8.93422C21.0132 8.23607 22.2001 7.75388 23.4464 7.51528C24.6927 7.27669 25.9738 7.28638 27.2163 7.5438L58.4563 11.9221C59.7193 12.0233 60.9499 12.3734 62.077 12.9522C63.2041 13.531 64.2056 14.3271 65.0238 15.2946C65.7307 16.3416 66.2172 17.5215 66.4537 18.7624C66.6902 20.0033 66.6717 21.2794 66.3994 22.513Z" fill="#0F113A"/>
<path opacity="0.2" d="M5.91645 54.2351V28.5923C5.76416 27.5209 5.86331 26.4288 6.20606 25.4024C6.5488 24.376 7.12573 23.4435 7.89119 22.6786C8.65664 21.9137 9.58962 21.3375 10.6163 20.9955C11.6429 20.6536 12.7351 20.5552 13.8063 20.7083H45.3658C46.4365 20.5569 47.5277 20.6564 48.5533 20.9991C49.5789 21.3417 50.5108 21.9181 51.2754 22.6827C52.04 23.4473 52.6164 24.3792 52.959 25.4048C53.3017 26.4304 53.4012 27.5216 53.2498 28.5923V54.2351C53.4022 55.3062 53.3035 56.3981 52.9613 57.4245C52.6191 58.4508 52.0428 59.3835 51.2781 60.1489C50.5134 60.9142 49.5811 61.4911 48.555 61.8341C47.5289 62.177 46.4371 62.2766 45.3658 62.125H13.8063C12.7345 62.2783 11.6418 62.1799 10.6146 61.8376C9.58741 61.4953 8.65406 60.9185 7.88848 60.153C7.12289 59.3874 6.5461 58.454 6.20382 57.4268C5.86153 56.3997 5.76314 55.3069 5.91645 54.2351Z" fill="#0F113A"/>
<path d="M36.9792 39.1981H31.8021V34.021C31.8021 33.4325 31.5683 32.8682 31.1522 32.4521C30.7361 32.036 30.1718 31.8022 29.5833 31.8022C28.9949 31.8022 28.4305 32.036 28.0144 32.4521C27.5983 32.8682 27.3646 33.4325 27.3646 34.021V39.1981H22.1875C21.5991 39.1981 21.0347 39.4318 20.6186 39.8479C20.2025 40.264 19.9688 40.8284 19.9688 41.4168C19.9688 42.0053 20.2025 42.5696 20.6186 42.9857C21.0347 43.4018 21.5991 43.6356 22.1875 43.6356H27.3646V48.8127C27.3646 49.4011 27.5983 49.9655 28.0144 50.3816C28.4305 50.7977 28.9949 51.0314 29.5833 51.0314C30.1718 51.0314 30.7361 50.7977 31.1522 50.3816C31.5683 49.9655 31.8021 49.4011 31.8021 48.8127V43.6356H36.9792C37.5676 43.6356 38.132 43.4018 38.5481 42.9857C38.9642 42.5696 39.1979 42.0053 39.1979 41.4168C39.1979 40.8284 38.9642 40.264 38.5481 39.8479C38.132 39.4318 37.5676 39.1981 36.9792 39.1981Z" fill="#0F113A"/>
</svg>
