<svg width="35" height="35" viewBox="0 0 35 35" fill="none" xmlns="http://www.w3.org/2000/svg">
<g clip-path="url(#clip0_42_487)">
<path d="M13.1253 8.02083C13.1253 6.81042 14.1024 5.83333 15.3128 5.83333C16.5232 5.83333 17.5003 6.81042 17.5003 8.02083C17.5003 9.23125 16.5232 10.2083 15.3128 10.2083C14.1024 10.2083 13.1253 9.23125 13.1253 8.02083ZM35.0003 7.29167V16.0417C35.0003 20.0667 31.7336 23.3333 27.7086 23.3333H14.5836C10.5586 23.3333 7.29195 20.0667 7.29195 16.0417V7.29167C7.29195 3.26667 10.5586 0 14.5836 0H27.7086C31.7336 0 35.0003 3.26667 35.0003 7.29167ZM10.2086 16.0417C10.2086 17.1646 10.6315 18.1854 11.3315 18.9729L18.9732 11.3313C20.4024 9.90208 22.8961 9.90208 24.3253 11.3313L25.8419 12.8479C26.1774 13.1833 26.7461 13.1833 27.0815 12.8479L32.0836 7.84583V7.29167C32.0836 4.88542 30.1149 2.91667 27.7086 2.91667H14.5836C12.1774 2.91667 10.2086 4.88542 10.2086 7.29167V16.0417ZM32.0836 16.0417V11.9729L29.1378 14.9187C27.7086 16.3479 25.2149 16.3479 23.7857 14.9187L22.269 13.4021C22.103 13.2408 21.8807 13.1506 21.6492 13.1506C21.4178 13.1506 21.1955 13.2408 21.0294 13.4021L14.044 20.3875C14.219 20.4167 14.394 20.4167 14.5836 20.4167H27.7086C30.1149 20.4167 32.0836 18.4479 32.0836 16.0417ZM26.3815 26.3083C25.6086 26.0896 24.8065 26.5562 24.5878 27.3292L24.1649 28.875C23.8586 29.9979 23.1294 30.9458 22.1086 31.5146C21.0878 32.0979 19.9065 32.2438 18.7836 31.9375L6.12528 28.4667C5.57063 28.3148 5.05137 28.055 4.59719 27.7023C4.14301 27.3496 3.76283 26.9108 3.47839 26.411C3.19396 25.9112 3.01084 25.3602 2.93953 24.7896C2.86821 24.2189 2.9101 23.6398 3.06278 23.0854L4.46278 17.8938C4.66695 17.1208 4.21486 16.3188 3.44195 16.1C2.66903 15.8958 1.86695 16.3479 1.6482 17.1208L0.262781 22.2979C-0.247121 24.164 0.00387203 26.1562 0.960716 27.8375C1.91756 29.5188 3.50214 30.752 5.36695 31.2667L18.0253 34.7375C18.6669 34.9125 19.3232 35 19.9649 35C21.219 35 22.444 34.6792 23.5669 34.0375C24.4002 33.5654 25.1319 32.9332 25.72 32.1774C26.3081 31.4216 26.7411 30.557 26.994 29.6333L27.4169 28.0875C27.6357 27.3146 27.169 26.5125 26.3961 26.2938L26.3815 26.3083Z" fill="#0F113A"/>
</g>
<defs>
<clipPath id="clip0_42_487">
<rect width="35" height="35" fill="white"/>
</clipPath>
</defs>
</svg>
